<svg fill="none" height="17" viewBox="0 0 19 17" width="19" xmlns="http://www.w3.org/2000/svg"><path d="m9.91667 7.41667h4.00003c.9334 0 1.4001 0 1.7566.18165.3136.15979.5686.41476.7284.72836.1816.35652.1816.82323.1816 1.75662v5.6667m-6.66663 0v-12.33333c0-.93342 0-1.40013-.18166-1.75665-.15979-.31361-.41476-.56858-.72836-.728364-.35652-.181656-.82323-.181656-1.75665-.181656h-3c-.93342 0-1.40013 0-1.75665.181656-.3136.159784-.56857.414754-.72836.728364-.18166.35652-.18166.82323-.18166 1.75665v12.33333m15.83337 0h-16.6667m3.75-11.66667h2.5m-2.5 3.33334h2.5m-2.5 3.33333h2.5" stroke="#888" stroke-linecap="round" stroke-linejoin="round" stroke-width="1.5"/></svg>