<svg width="24" height="24" viewBox="0 0 24 24" fill="none" xmlns="http://www.w3.org/2000/svg">
<path d="M5 19.3929V4.60714C5 3.71982 5.71255 3 6.59091 3H10.7273C12.9213 3 15.0257 3.88028 16.5772 5.44754C18.1286 7.01481 19 9.14069 19 11.3571V19.3929C19 20.2802 18.2875 21 17.4091 21H6.59091C5.71255 21 5 20.2802 5 19.3929ZM12 16.5C12.3515 16.5 12.6364 16.7878 12.6364 17.1429C12.6364 17.4979 12.3515 17.7857 12 17.7857H8.81818C8.46673 17.7857 8.18182 17.4979 8.18182 17.1429C8.18182 16.7878 8.46673 16.5 8.81818 16.5H12ZM15.1818 13.9286C15.5333 13.9286 15.8182 14.2164 15.8182 14.5714C15.8182 14.9265 15.5333 15.2143 15.1818 15.2143H8.81818C8.46673 15.2143 8.18182 14.9265 8.18182 14.5714C8.18182 14.2164 8.46673 13.9286 8.81818 13.9286H15.1818ZM13.9091 7.82143C13.9091 7.90668 13.9422 7.98883 14.0019 8.04911C14.0616 8.10939 14.1429 8.14286 14.2273 8.14286H15.5C16.0833 8.14286 16.6517 8.29001 17.1564 8.5639C16.809 7.74799 16.311 6.99678 15.6773 6.35658C15.0433 5.71613 14.2995 5.21252 13.4915 4.86161C13.7629 5.37172 13.9091 5.94603 13.9091 6.53571V7.82143ZM6.27273 19.3929C6.27273 19.5701 6.41545 19.7143 6.59091 19.7143H17.4091C17.5845 19.7143 17.7273 19.5701 17.7273 19.3929V11.6786C17.7273 11.0818 17.4929 10.5093 17.0752 10.0873C16.6575 9.66538 16.0907 9.42857 15.5 9.42857H14.2273C13.8053 9.42857 13.4004 9.25954 13.102 8.95815C12.8037 8.65675 12.6364 8.24767 12.6364 7.82143V6.53571C12.6364 5.93898 12.402 5.36643 11.9843 4.94448C11.5666 4.52252 10.9998 4.28571 10.4091 4.28571H6.59091C6.41545 4.28571 6.27273 4.4299 6.27273 4.60714V19.3929Z" fill="#CCCCCC"/>
</svg>
