<svg width="24" height="24" viewBox="0 0 24 24" fill="none" xmlns="http://www.w3.org/2000/svg">
<path fill-rule="evenodd" clip-rule="evenodd" d="M12 3.00001C10.3692 3.00115 8.76275 3.09458 7.18061 3.2803C5.91042 3.42944 5 4.53173 5 5.79174V20.3573C5.00002 20.4624 5.02555 20.5658 5.07433 20.6586C5.12311 20.7514 5.19368 20.8308 5.27983 20.8896C5.36599 20.9485 5.46512 20.9851 5.56855 20.9963C5.67197 21.0075 5.77654 20.993 5.87309 20.9539L8.81818 19.7641L11.7641 20.9539C11.9156 21.0149 12.0844 21.0149 12.2359 20.9539L15.1818 19.7641L18.1269 20.9539C18.2235 20.993 18.328 21.0075 18.4315 20.9963C18.5349 20.9851 18.634 20.9485 18.7202 20.8896C18.8063 20.8308 18.8769 20.7514 18.9257 20.6586C18.9745 20.5658 19 20.4624 19 20.3573V5.79174C19 4.53173 18.0896 3.42944 16.8194 3.2803C15.2197 3.09265 13.6105 2.99906 12 3.00001ZM14.9952 9.24006C15.1076 9.11819 15.1688 8.95701 15.1658 8.79046C15.1629 8.62392 15.0962 8.46501 14.9796 8.34723C14.863 8.22945 14.7057 8.16198 14.5408 8.15904C14.3759 8.1561 14.2164 8.21792 14.0958 8.33148L9.00485 13.4744C8.94233 13.5332 8.89218 13.6042 8.8574 13.6831C8.82262 13.7619 8.80391 13.847 8.80241 13.9334C8.8009 14.0197 8.81662 14.1054 8.84862 14.1855C8.88063 14.2655 8.92827 14.3382 8.9887 14.3993C9.04912 14.4603 9.1211 14.5084 9.20034 14.5408C9.27958 14.5731 9.36445 14.589 9.4499 14.5875C9.53534 14.5859 9.61961 14.567 9.69767 14.5319C9.77573 14.4968 9.84598 14.4461 9.90424 14.383L14.9952 9.24006ZM9.13636 9.42863C9.13636 9.17288 9.23693 8.92761 9.41594 8.74677C9.59496 8.56593 9.83775 8.46434 10.0909 8.46434C10.3441 8.46434 10.5869 8.56593 10.7659 8.74677C10.9449 8.92761 11.0455 9.17288 11.0455 9.42863C11.0455 9.68438 10.9449 9.92965 10.7659 10.1105C10.5869 10.2913 10.3441 10.3929 10.0909 10.3929C9.83775 10.3929 9.59496 10.2913 9.41594 10.1105C9.23693 9.92965 9.13636 9.68438 9.13636 9.42863ZM13.9091 12.3215C13.6559 12.3215 13.4131 12.4231 13.2341 12.6039C13.0551 12.7848 12.9545 13.0301 12.9545 13.2858C12.9545 13.5415 13.0551 13.7868 13.2341 13.9677C13.4131 14.1485 13.6559 14.2501 13.9091 14.2501C14.1623 14.2501 14.405 14.1485 14.5841 13.9677C14.7631 13.7868 14.8636 13.5415 14.8636 13.2858C14.8636 13.0301 14.7631 12.7848 14.5841 12.6039C14.405 12.4231 14.1623 12.3215 13.9091 12.3215Z" fill="black"/>
</svg>
