<svg fill="none" height="20" viewBox="0 0 20 20" width="20" xmlns="http://www.w3.org/2000/svg"><path d="m17.5 8.33341h-15m10.8333-6.66666v3.33333m-6.66663-3.33333v3.33333m-.16667 13.33332h7c1.4001 0 2.1002 0 2.635-.2725.4704-.2397.8528-.6221 1.0925-1.0925.2725-.5348.2725-1.2349.2725-2.635v-6.99999c0-1.40013 0-2.10019-.2725-2.63497-.2397-.47041-.6221-.85286-1.0925-1.09254-.5348-.27249-1.2349-.27249-2.635-.27249h-7c-1.40013 0-2.1002 0-2.63498.27249-.4704.23968-.85285.62213-1.09254 1.09254-.27248.53478-.27248 1.23484-.27248 2.63497v6.99999c0 1.4001 0 2.1002.27248 2.635.23969.4704.62214.8528 1.09254 1.0925.53478.2725 1.23485.2725 2.63498.2725z" stroke="#888" stroke-linecap="round" stroke-linejoin="round" stroke-width="1.5"/></svg>