<svg fill="none" height="15" viewBox="0 0 15 15" width="15" xmlns="http://www.w3.org/2000/svg"><path d="m4.59961 4.6001v-1.86667c0-.74674 0-1.1201.14532-1.40532.12784-.25088.33181-.454857.58269-.582688.28522-.145324.65859-.145324 1.40532-.145324h5.06666c.7467 0 1.1201 0 1.4053.145324.2509.127831.4549.331808.5827.582688.1453.28522.1453.65858.1453 1.40532v5.06667c0 .74673 0 1.1201-.1453 1.40532-.1278.25088-.3318.45486-.5827.58269-.2852.14532-.6586.14532-1.4053.14532h-1.86666m-7.2 3.99997h5.06667c.74674 0 1.1201 0 1.40532-.1453.25088-.1278.45486-.3318.58269-.5827.14532-.2852.14532-.6586.14532-1.4053v-5.06667c0-.74674 0-1.1201-.14532-1.40532-.12783-.25088-.33181-.45486-.58269-.58269-.28522-.14532-.65858-.14532-1.40532-.14532h-5.06667c-.74673 0-1.1201 0-1.40532.14532-.25088.12783-.454855.33181-.582686.58269-.145325.28522-.145325.65858-.145325 1.40532v5.06667c0 .7467 0 1.1201.145325 1.4053.127831.2509.331806.4549.582686.5827.28522.1453.65859.1453 1.40532.1453z" stroke="#05a84e" stroke-linecap="round" stroke-linejoin="round" stroke-width="1.2"/></svg>