<svg fill="none" height="15" viewBox="0 0 14 15" width="14" xmlns="http://www.w3.org/2000/svg"><path d="m9.41667 3.41667v-.53334c0-.74673 0-1.1201-.14533-1.40532-.12783-.25088-.3318-.45485-.58269-.582685-.28521-.145325-.65858-.145325-1.40532-.145325h-1.06666c-.74674 0-1.12011 0-1.40532.145325-.25089.127835-.45486.331805-.58269.582685-.14533.28522-.14533.65859-.14533 1.40532v.53334m1.33334 3.66666v3.33337m2.66666-3.33337v3.33337m-7.33333-7.00003h12m-1.3333 0v7.46663c0 1.1201 0 1.6802-.218 2.108-.1918.3763-.4977.6823-.8741.874-.42778.218-.98783.218-2.10793.218h-2.93334c-1.1201 0-1.68015 0-2.10798-.218-.37632-.1917-.68228-.4977-.87403-.874-.21799-.4278-.21799-.9879-.21799-2.108v-7.46663" stroke="#6a6a6a" stroke-linecap="round" stroke-linejoin="round" stroke-width="1.5"/></svg>