<svg width="372" height="50" viewBox="0 0 372 50" fill="none" xmlns="http://www.w3.org/2000/svg">
<path d="M346.75 0.375C360.212 0.375 371.125 11.2881 371.125 24.75C371.125 38.2119 360.212 49.125 346.75 49.125H24.75C11.2881 49.125 0.375 38.2119 0.375 24.75C0.375 11.2881 11.2881 0.375 24.75 0.375H346.75Z" stroke="black" stroke-opacity="0.08" stroke-width="0.75"/>
<path d="M73.9167 25.1665V20.4165C73.9167 19.0164 73.9167 18.3163 73.6442 17.7815C73.4045 17.3111 73.0221 16.9287 72.5517 16.689C72.0169 16.4165 71.3168 16.4165 69.9167 16.4165H64.5834C63.1832 16.4165 62.4832 16.4165 61.9484 16.689C61.478 16.9287 61.0955 17.3111 60.8559 17.7815C60.5834 18.3163 60.5834 19.0164 60.5834 20.4165V29.0832C60.5834 30.4833 60.5834 31.1834 60.8559 31.7181C61.0955 32.1886 61.478 32.571 61.9484 32.8107C62.4832 33.0832 63.1832 33.0832 64.5833 33.0832H67.6667M68.9167 23.9165H63.9167M65.5834 27.2498H63.9167M70.5834 20.5832H63.9167M69.75 30.5832L72.25 33.0832M72.25 33.0832L74.75 30.5832M72.25 33.0832V28.0832" stroke="#05A84E" stroke-width="1.66667" stroke-linecap="round" stroke-linejoin="round"/>
<path d="M87.7045 29.75H84.2543V19.5682H87.7741C88.785 19.5682 89.6534 19.772 90.3793 20.1797C91.1084 20.584 91.6686 21.1657 92.0597 21.9247C92.4508 22.6837 92.6463 23.5919 92.6463 24.6491C92.6463 25.7098 92.4491 26.6212 92.0547 27.3835C91.6636 28.1458 91.0985 28.7308 90.3594 29.1385C89.6236 29.5462 88.7386 29.75 87.7045 29.75ZM86.0987 28.1541H87.6151C88.3243 28.1541 88.916 28.0249 89.3899 27.7663C89.8639 27.5045 90.2202 27.1151 90.4588 26.598C90.6974 26.0777 90.8168 25.428 90.8168 24.6491C90.8168 23.8703 90.6974 23.224 90.4588 22.7102C90.2202 22.1932 89.8672 21.8071 89.3999 21.5518C88.9358 21.2933 88.3591 21.1641 87.6697 21.1641H86.0987V28.1541ZM97.4102 29.8991C96.6645 29.8991 96.0182 29.7351 95.4713 29.407C94.9244 29.0788 94.5002 28.6198 94.1986 28.0298C93.9003 27.4399 93.7511 26.7505 93.7511 25.9616C93.7511 25.1728 93.9003 24.4818 94.1986 23.8885C94.5002 23.2952 94.9244 22.8345 95.4713 22.5064C96.0182 22.1783 96.6645 22.0142 97.4102 22.0142C98.156 22.0142 98.8023 22.1783 99.3491 22.5064C99.896 22.8345 100.319 23.2952 100.617 23.8885C100.918 24.4818 101.069 25.1728 101.069 25.9616C101.069 26.7505 100.918 27.4399 100.617 28.0298C100.319 28.6198 99.896 29.0788 99.3491 29.407C98.8023 29.7351 98.156 29.8991 97.4102 29.8991ZM97.4202 28.4574C97.8245 28.4574 98.1626 28.3464 98.4344 28.1243C98.7061 27.8989 98.9083 27.5973 99.0409 27.2195C99.1768 26.8416 99.2447 26.4207 99.2447 25.9567C99.2447 25.4893 99.1768 25.0668 99.0409 24.6889C98.9083 24.3078 98.7061 24.0045 98.4344 23.7791C98.1626 23.5537 97.8245 23.4411 97.4202 23.4411C97.0059 23.4411 96.6612 23.5537 96.3861 23.7791C96.1143 24.0045 95.9105 24.3078 95.7746 24.6889C95.642 25.0668 95.5757 25.4893 95.5757 25.9567C95.5757 26.4207 95.642 26.8416 95.7746 27.2195C95.9105 27.5973 96.1143 27.8989 96.3861 28.1243C96.6612 28.3464 97.0059 28.4574 97.4202 28.4574ZM103.714 29.75L101.556 22.1136H103.391L104.733 27.483H104.803L106.175 22.1136H107.99L109.362 27.4531H109.436L110.759 22.1136H112.598L110.436 29.75H108.561L107.13 24.5895H107.025L105.593 29.75H103.714ZM115.415 25.2756V29.75H113.615V22.1136H115.335V23.4112H115.425C115.6 22.9837 115.88 22.6439 116.265 22.392C116.653 22.1402 117.131 22.0142 117.702 22.0142C118.229 22.0142 118.688 22.1269 119.079 22.3523C119.473 22.5777 119.778 22.9041 119.993 23.3317C120.212 23.7592 120.32 24.2779 120.317 24.8878V29.75H118.517V25.1662C118.517 24.6558 118.384 24.2564 118.119 23.968C117.857 23.6797 117.494 23.5355 117.03 23.5355C116.715 23.5355 116.435 23.6051 116.19 23.7443C115.948 23.8802 115.758 24.0774 115.618 24.3359C115.483 24.5945 115.415 24.9077 115.415 25.2756ZM123.706 19.5682V29.75H121.906V19.5682H123.706ZM128.647 29.8991C127.902 29.8991 127.255 29.7351 126.709 29.407C126.162 29.0788 125.737 28.6198 125.436 28.0298C125.138 27.4399 124.988 26.7505 124.988 25.9616C124.988 25.1728 125.138 24.4818 125.436 23.8885C125.737 23.2952 126.162 22.8345 126.709 22.5064C127.255 22.1783 127.902 22.0142 128.647 22.0142C129.393 22.0142 130.04 22.1783 130.586 22.5064C131.133 22.8345 131.556 23.2952 131.854 23.8885C132.156 24.4818 132.307 25.1728 132.307 25.9616C132.307 26.7505 132.156 27.4399 131.854 28.0298C131.556 28.6198 131.133 29.0788 130.586 29.407C130.04 29.7351 129.393 29.8991 128.647 29.8991ZM128.657 28.4574C129.062 28.4574 129.4 28.3464 129.672 28.1243C129.943 27.8989 130.146 27.5973 130.278 27.2195C130.414 26.8416 130.482 26.4207 130.482 25.9567C130.482 25.4893 130.414 25.0668 130.278 24.6889C130.146 24.3078 129.943 24.0045 129.672 23.7791C129.4 23.5537 129.062 23.4411 128.657 23.4411C128.243 23.4411 127.898 23.5537 127.623 23.7791C127.352 24.0045 127.148 24.3078 127.012 24.6889C126.879 25.0668 126.813 25.4893 126.813 25.9567C126.813 26.4207 126.879 26.8416 127.012 27.2195C127.148 27.5973 127.352 27.8989 127.623 28.1243C127.898 28.3464 128.243 28.4574 128.657 28.4574ZM135.792 29.9041C135.308 29.9041 134.872 29.8179 134.484 29.6456C134.1 29.4699 133.795 29.2114 133.569 28.87C133.347 28.5286 133.236 28.1077 133.236 27.6072C133.236 27.1764 133.316 26.8201 133.475 26.5384C133.634 26.2566 133.851 26.0312 134.126 25.8622C134.401 25.6932 134.711 25.5656 135.056 25.4794C135.404 25.3899 135.763 25.3253 136.135 25.2855C136.582 25.2391 136.945 25.1977 137.223 25.1612C137.502 25.1214 137.704 25.0618 137.83 24.9822C137.959 24.8994 138.024 24.7718 138.024 24.5994V24.5696C138.024 24.1951 137.913 23.9051 137.691 23.6996C137.469 23.4941 137.149 23.3913 136.731 23.3913C136.29 23.3913 135.941 23.4875 135.682 23.6797C135.427 23.8719 135.255 24.099 135.165 24.3608L133.485 24.1222C133.617 23.6581 133.836 23.2704 134.141 22.9588C134.446 22.6439 134.819 22.4086 135.26 22.2528C135.7 22.0938 136.188 22.0142 136.721 22.0142C137.089 22.0142 137.455 22.0573 137.82 22.1435C138.185 22.2296 138.518 22.3722 138.819 22.571C139.121 22.7666 139.363 23.0334 139.545 23.3714C139.731 23.7095 139.823 24.1321 139.823 24.6392V29.75H138.093V28.701H138.034C137.924 28.9131 137.77 29.112 137.571 29.2976C137.376 29.4799 137.129 29.6274 136.831 29.7401C136.536 29.8494 136.189 29.9041 135.792 29.9041ZM136.259 28.5817C136.62 28.5817 136.933 28.5104 137.198 28.3679C137.464 28.2221 137.667 28.0298 137.81 27.7912C137.956 27.5526 138.029 27.2924 138.029 27.0107V26.1108C137.972 26.1572 137.876 26.2003 137.74 26.2401C137.608 26.2798 137.459 26.3146 137.293 26.3445C137.127 26.3743 136.963 26.4008 136.801 26.424C136.638 26.4472 136.498 26.4671 136.378 26.4837C136.11 26.5201 135.869 26.5798 135.657 26.6626C135.445 26.7455 135.278 26.8615 135.155 27.0107C135.033 27.1565 134.971 27.3454 134.971 27.5774C134.971 27.9089 135.092 28.1591 135.334 28.3281C135.576 28.4972 135.884 28.5817 136.259 28.5817ZM144.227 29.8842C143.627 29.8842 143.09 29.7301 142.616 29.4219C142.142 29.1136 141.768 28.6662 141.493 28.0795C141.217 27.4929 141.08 26.7803 141.08 25.9418C141.08 25.0933 141.219 24.3774 141.498 23.794C141.779 23.2074 142.159 22.7649 142.636 22.4666C143.113 22.165 143.645 22.0142 144.232 22.0142C144.679 22.0142 145.047 22.0904 145.336 22.2429C145.624 22.392 145.853 22.5727 146.022 22.7848C146.191 22.9936 146.322 23.1908 146.414 23.3764H146.489V19.5682H148.294V29.75H146.524V28.5469H146.414C146.322 28.7325 146.187 28.9297 146.012 29.1385C145.836 29.344 145.604 29.5196 145.316 29.6655C145.027 29.8113 144.664 29.8842 144.227 29.8842ZM144.729 28.4077C145.11 28.4077 145.435 28.3049 145.704 28.0994C145.972 27.8906 146.176 27.6006 146.315 27.2294C146.454 26.8582 146.524 26.4257 146.524 25.9318C146.524 25.438 146.454 25.0088 146.315 24.6442C146.179 24.2796 145.977 23.9962 145.708 23.794C145.443 23.5919 145.117 23.4908 144.729 23.4908C144.328 23.4908 143.993 23.5952 143.725 23.804C143.456 24.0128 143.254 24.3011 143.118 24.669C142.982 25.0369 142.914 25.4579 142.914 25.9318C142.914 26.4091 142.982 26.835 143.118 27.2095C143.257 27.5807 143.461 27.8741 143.73 28.0895C144.002 28.3016 144.335 28.4077 144.729 28.4077ZM156.535 29.8991C155.773 29.8991 155.118 29.7318 154.571 29.397C154.028 29.0623 153.609 28.5999 153.314 28.0099C153.022 27.4167 152.876 26.7339 152.876 25.9616C152.876 25.1861 153.025 24.5017 153.323 23.9084C153.622 23.3118 154.043 22.8478 154.586 22.5163C155.133 22.1816 155.779 22.0142 156.525 22.0142C157.145 22.0142 157.694 22.1286 158.171 22.3572C158.651 22.5826 159.034 22.9025 159.319 23.3168C159.604 23.7277 159.767 24.2083 159.806 24.7585H158.086C158.017 24.3906 157.851 24.084 157.589 23.8388C157.331 23.5902 156.984 23.4659 156.55 23.4659C156.182 23.4659 155.859 23.5653 155.581 23.7642C155.302 23.9598 155.085 24.2415 154.929 24.6094C154.777 24.9773 154.701 25.4181 154.701 25.9318C154.701 26.4522 154.777 26.8996 154.929 27.2741C155.082 27.6454 155.296 27.9321 155.571 28.1342C155.849 28.3331 156.176 28.4325 156.55 28.4325C156.815 28.4325 157.052 28.3828 157.261 28.2834C157.473 28.1806 157.65 28.0331 157.793 27.8409C157.935 27.6487 158.033 27.415 158.086 27.1399H159.806C159.763 27.6802 159.604 28.1591 159.329 28.5767C159.054 28.991 158.68 29.3158 158.206 29.5511C157.732 29.7831 157.175 29.8991 156.535 29.8991ZM162.844 19.5682V29.75H161.044V19.5682H162.844ZM167.835 29.8991C167.07 29.8991 166.408 29.7401 165.852 29.4219C165.298 29.1004 164.872 28.6463 164.574 28.0597C164.276 27.4697 164.127 26.7753 164.127 25.9766C164.127 25.1911 164.276 24.5017 164.574 23.9084C164.876 23.3118 165.296 22.8478 165.837 22.5163C166.377 22.1816 167.012 22.0142 167.741 22.0142C168.212 22.0142 168.656 22.0904 169.073 22.2429C169.494 22.392 169.865 22.6241 170.187 22.9389C170.512 23.2538 170.767 23.6548 170.953 24.142C171.138 24.6259 171.231 25.2027 171.231 25.8722V26.424H164.972V25.2109H169.506C169.502 24.8662 169.428 24.5597 169.282 24.2912C169.136 24.0194 168.932 23.8056 168.671 23.6499C168.412 23.4941 168.11 23.4162 167.766 23.4162C167.398 23.4162 167.075 23.5057 166.796 23.6847C166.518 23.8603 166.301 24.0923 166.145 24.3807C165.993 24.6657 165.915 24.9789 165.911 25.3203V26.3793C165.911 26.8234 165.993 27.2045 166.155 27.5227C166.317 27.8376 166.544 28.0795 166.836 28.2486C167.128 28.4143 167.469 28.4972 167.86 28.4972C168.122 28.4972 168.359 28.4607 168.571 28.3878C168.783 28.3116 168.967 28.2005 169.123 28.0547C169.279 27.9089 169.396 27.7282 169.476 27.5128L171.156 27.7017C171.05 28.1458 170.848 28.5336 170.55 28.8651C170.255 29.1932 169.877 29.4484 169.416 29.6307C168.956 29.8097 168.429 29.8991 167.835 29.8991ZM174.711 29.9041C174.227 29.9041 173.791 29.8179 173.403 29.6456C173.019 29.4699 172.714 29.2114 172.489 28.87C172.267 28.5286 172.156 28.1077 172.156 27.6072C172.156 27.1764 172.235 26.8201 172.394 26.5384C172.553 26.2566 172.77 26.0312 173.045 25.8622C173.321 25.6932 173.63 25.5656 173.975 25.4794C174.323 25.3899 174.683 25.3253 175.054 25.2855C175.501 25.2391 175.864 25.1977 176.143 25.1612C176.421 25.1214 176.623 25.0618 176.749 24.9822C176.879 24.8994 176.943 24.7718 176.943 24.5994V24.5696C176.943 24.1951 176.832 23.9051 176.61 23.6996C176.388 23.4941 176.068 23.3913 175.651 23.3913C175.21 23.3913 174.86 23.4875 174.602 23.6797C174.346 23.8719 174.174 24.099 174.084 24.3608L172.404 24.1222C172.537 23.6581 172.755 23.2704 173.06 22.9588C173.365 22.6439 173.738 22.4086 174.179 22.2528C174.62 22.0938 175.107 22.0142 175.641 22.0142C176.008 22.0142 176.375 22.0573 176.739 22.1435C177.104 22.2296 177.437 22.3722 177.739 22.571C178.04 22.7666 178.282 23.0334 178.464 23.3714C178.65 23.7095 178.743 24.1321 178.743 24.6392V29.75H177.013V28.701H176.953C176.844 28.9131 176.69 29.112 176.491 29.2976C176.295 29.4799 176.048 29.6274 175.75 29.7401C175.455 29.8494 175.109 29.9041 174.711 29.9041ZM175.178 28.5817C175.54 28.5817 175.853 28.5104 176.118 28.3679C176.383 28.2221 176.587 28.0298 176.729 27.7912C176.875 27.5526 176.948 27.2924 176.948 27.0107V26.1108C176.892 26.1572 176.796 26.2003 176.66 26.2401C176.527 26.2798 176.378 26.3146 176.212 26.3445C176.047 26.3743 175.883 26.4008 175.72 26.424C175.558 26.4472 175.417 26.4671 175.298 26.4837C175.029 26.5201 174.789 26.5798 174.577 26.6626C174.365 26.7455 174.197 26.8615 174.075 27.0107C173.952 27.1565 173.891 27.3454 173.891 27.5774C173.891 27.9089 174.012 28.1591 174.254 28.3281C174.495 28.4972 174.804 28.5817 175.178 28.5817ZM180.313 29.75V22.1136H182.058V23.3864H182.137C182.276 22.9455 182.515 22.6058 182.853 22.3672C183.194 22.1252 183.584 22.0043 184.021 22.0043C184.121 22.0043 184.232 22.0092 184.354 22.0192C184.48 22.0258 184.585 22.0374 184.668 22.054V23.7095C184.591 23.683 184.47 23.6598 184.305 23.6399C184.142 23.6167 183.985 23.6051 183.832 23.6051C183.504 23.6051 183.209 23.6764 182.947 23.8189C182.689 23.9581 182.485 24.152 182.336 24.4006C182.187 24.6491 182.112 24.9358 182.112 25.2607V29.75H180.313ZM187.684 29.9041C187.2 29.9041 186.764 29.8179 186.377 29.6456C185.992 29.4699 185.687 29.2114 185.462 28.87C185.24 28.5286 185.129 28.1077 185.129 27.6072C185.129 27.1764 185.208 26.8201 185.367 26.5384C185.526 26.2566 185.743 26.0312 186.019 25.8622C186.294 25.6932 186.604 25.5656 186.948 25.4794C187.296 25.3899 187.656 25.3253 188.027 25.2855C188.475 25.2391 188.837 25.1977 189.116 25.1612C189.394 25.1214 189.596 25.0618 189.722 24.9822C189.852 24.8994 189.916 24.7718 189.916 24.5994V24.5696C189.916 24.1951 189.805 23.9051 189.583 23.6996C189.361 23.4941 189.041 23.3913 188.624 23.3913C188.183 23.3913 187.833 23.4875 187.575 23.6797C187.319 23.8719 187.147 24.099 187.058 24.3608L185.377 24.1222C185.51 23.6581 185.729 23.2704 186.033 22.9588C186.338 22.6439 186.711 22.4086 187.152 22.2528C187.593 22.0938 188.08 22.0142 188.614 22.0142C188.982 22.0142 189.348 22.0573 189.712 22.1435C190.077 22.2296 190.41 22.3722 190.712 22.571C191.013 22.7666 191.255 23.0334 191.438 23.3714C191.623 23.7095 191.716 24.1321 191.716 24.6392V29.75H189.986V28.701H189.926C189.817 28.9131 189.663 29.112 189.464 29.2976C189.268 29.4799 189.021 29.6274 188.723 29.7401C188.428 29.8494 188.082 29.9041 187.684 29.9041ZM188.151 28.5817C188.513 28.5817 188.826 28.5104 189.091 28.3679C189.356 28.2221 189.56 28.0298 189.702 27.7912C189.848 27.5526 189.921 27.2924 189.921 27.0107V26.1108C189.865 26.1572 189.769 26.2003 189.633 26.2401C189.5 26.2798 189.351 26.3146 189.185 26.3445C189.02 26.3743 188.856 26.4008 188.693 26.424C188.531 26.4472 188.39 26.4671 188.271 26.4837C188.002 26.5201 187.762 26.5798 187.55 26.6626C187.338 26.7455 187.17 26.8615 187.048 27.0107C186.925 27.1565 186.864 27.3454 186.864 27.5774C186.864 27.9089 186.985 28.1591 187.227 28.3281C187.469 28.4972 187.777 28.5817 188.151 28.5817ZM195.085 25.2756V29.75H193.286V22.1136H195.006V23.4112H195.095C195.271 22.9837 195.551 22.6439 195.936 22.392C196.323 22.1402 196.802 22.0142 197.372 22.0142C197.899 22.0142 198.358 22.1269 198.749 22.3523C199.144 22.5777 199.449 22.9041 199.664 23.3317C199.883 23.7592 199.991 24.2779 199.987 24.8878V29.75H198.188V25.1662C198.188 24.6558 198.055 24.2564 197.79 23.968C197.528 23.6797 197.165 23.5355 196.701 23.5355C196.386 23.5355 196.106 23.6051 195.861 23.7443C195.619 23.8802 195.428 24.0774 195.289 24.3359C195.153 24.5945 195.085 24.9077 195.085 25.2756ZM204.908 29.8991C204.146 29.8991 203.491 29.7318 202.944 29.397C202.401 29.0623 201.981 28.5999 201.686 28.0099C201.395 27.4167 201.249 26.7339 201.249 25.9616C201.249 25.1861 201.398 24.5017 201.696 23.9084C201.995 23.3118 202.415 22.8478 202.959 22.5163C203.506 22.1816 204.152 22.0142 204.898 22.0142C205.518 22.0142 206.066 22.1286 206.544 22.3572C207.024 22.5826 207.407 22.9025 207.692 23.3168C207.977 23.7277 208.139 24.2083 208.179 24.7585H206.459C206.389 24.3906 206.224 24.084 205.962 23.8388C205.703 23.5902 205.357 23.4659 204.923 23.4659C204.555 23.4659 204.232 23.5653 203.953 23.7642C203.675 23.9598 203.458 24.2415 203.302 24.6094C203.15 24.9773 203.073 25.4181 203.073 25.9318C203.073 26.4522 203.15 26.8996 203.302 27.2741C203.455 27.6454 203.668 27.9321 203.943 28.1342C204.222 28.3331 204.548 28.4325 204.923 28.4325C205.188 28.4325 205.425 28.3828 205.634 28.2834C205.846 28.1806 206.023 28.0331 206.166 27.8409C206.308 27.6487 206.406 27.415 206.459 27.1399H208.179C208.136 27.6802 207.977 28.1591 207.702 28.5767C207.427 28.991 207.052 29.3158 206.578 29.5511C206.104 29.7831 205.548 29.8991 204.908 29.8991ZM212.798 29.8991C212.032 29.8991 211.371 29.7401 210.814 29.4219C210.26 29.1004 209.835 28.6463 209.536 28.0597C209.238 27.4697 209.089 26.7753 209.089 25.9766C209.089 25.1911 209.238 24.5017 209.536 23.9084C209.838 23.3118 210.259 22.8478 210.799 22.5163C211.339 22.1816 211.974 22.0142 212.703 22.0142C213.174 22.0142 213.618 22.0904 214.036 22.2429C214.457 22.392 214.828 22.6241 215.149 22.9389C215.474 23.2538 215.729 23.6548 215.915 24.142C216.1 24.6259 216.193 25.2027 216.193 25.8722V26.424H209.934V25.2109H214.468C214.465 24.8662 214.39 24.5597 214.244 24.2912C214.099 24.0194 213.895 23.8056 213.633 23.6499C213.374 23.4941 213.073 23.4162 212.728 23.4162C212.36 23.4162 212.037 23.5057 211.759 23.6847C211.48 23.8603 211.263 24.0923 211.107 24.3807C210.955 24.6657 210.877 24.9789 210.874 25.3203V26.3793C210.874 26.8234 210.955 27.2045 211.117 27.5227C211.28 27.8376 211.507 28.0795 211.798 28.2486C212.09 28.4143 212.431 28.4972 212.823 28.4972C213.084 28.4972 213.321 28.4607 213.533 28.3878C213.746 28.3116 213.93 28.2005 214.085 28.0547C214.241 27.9089 214.359 27.7282 214.438 27.5128L216.119 27.7017C216.013 28.1458 215.81 28.5336 215.512 28.8651C215.217 29.1932 214.839 29.4484 214.379 29.6307C213.918 29.8097 213.391 29.8991 212.798 29.8991ZM224.039 29.8991C223.277 29.8991 222.623 29.7318 222.076 29.397C221.532 29.0623 221.113 28.5999 220.818 28.0099C220.526 27.4167 220.38 26.7339 220.38 25.9616C220.38 25.1861 220.529 24.5017 220.828 23.9084C221.126 23.3118 221.547 22.8478 222.091 22.5163C222.637 22.1816 223.284 22.0142 224.029 22.0142C224.649 22.0142 225.198 22.1286 225.675 22.3572C226.156 22.5826 226.538 22.9025 226.824 23.3168C227.109 23.7277 227.271 24.2083 227.311 24.7585H225.591C225.521 24.3906 225.355 24.084 225.093 23.8388C224.835 23.5902 224.489 23.4659 224.054 23.4659C223.686 23.4659 223.363 23.5653 223.085 23.7642C222.806 23.9598 222.589 24.2415 222.434 24.6094C222.281 24.9773 222.205 25.4181 222.205 25.9318C222.205 26.4522 222.281 26.8996 222.434 27.2741C222.586 27.6454 222.8 27.9321 223.075 28.1342C223.353 28.3331 223.68 28.4325 224.054 28.4325C224.32 28.4325 224.556 28.3828 224.765 28.2834C224.977 28.1806 225.155 28.0331 225.297 27.8409C225.44 27.6487 225.538 27.415 225.591 27.1399H227.311C227.268 27.6802 227.109 28.1591 226.833 28.5767C226.558 28.991 226.184 29.3158 225.71 29.5511C225.236 29.7831 224.679 29.8991 224.039 29.8991ZM231.929 29.8991C231.164 29.8991 230.502 29.7401 229.946 29.4219C229.392 29.1004 228.966 28.6463 228.668 28.0597C228.37 27.4697 228.22 26.7753 228.22 25.9766C228.22 25.1911 228.37 24.5017 228.668 23.9084C228.969 23.3118 229.39 22.8478 229.931 22.5163C230.471 22.1816 231.106 22.0142 231.835 22.0142C232.305 22.0142 232.75 22.0904 233.167 22.2429C233.588 22.392 233.959 22.6241 234.281 22.9389C234.606 23.2538 234.861 23.6548 235.046 24.142C235.232 24.6259 235.325 25.2027 235.325 25.8722V26.424H229.066V25.2109H233.6C233.596 24.8662 233.522 24.5597 233.376 24.2912C233.23 24.0194 233.026 23.8056 232.764 23.6499C232.506 23.4941 232.204 23.4162 231.86 23.4162C231.492 23.4162 231.169 23.5057 230.89 23.6847C230.612 23.8603 230.395 24.0923 230.239 24.3807C230.086 24.6657 230.009 24.9789 230.005 25.3203V26.3793C230.005 26.8234 230.086 27.2045 230.249 27.5227C230.411 27.8376 230.638 28.0795 230.93 28.2486C231.222 28.4143 231.563 28.4972 231.954 28.4972C232.216 28.4972 232.453 28.4607 232.665 28.3878C232.877 28.3116 233.061 28.2005 233.217 28.0547C233.373 27.9089 233.49 27.7282 233.57 27.5128L235.25 27.7017C235.144 28.1458 234.942 28.5336 234.644 28.8651C234.349 29.1932 233.971 29.4484 233.51 29.6307C233.049 29.8097 232.522 29.8991 231.929 29.8991ZM236.607 29.75V22.1136H238.352V23.3864H238.432C238.571 22.9455 238.81 22.6058 239.148 22.3672C239.489 22.1252 239.879 22.0043 240.316 22.0043C240.416 22.0043 240.527 22.0092 240.649 22.0192C240.775 22.0258 240.88 22.0374 240.962 22.054V23.7095C240.886 23.683 240.765 23.6598 240.6 23.6399C240.437 23.6167 240.28 23.6051 240.127 23.6051C239.799 23.6051 239.504 23.6764 239.242 23.8189C238.984 23.9581 238.78 24.152 238.631 24.4006C238.482 24.6491 238.407 24.9358 238.407 25.2607V29.75H236.607ZM246.142 22.1136V23.5057H241.752V22.1136H246.142ZM242.835 20.2841H244.635V27.4531C244.635 27.6951 244.672 27.8807 244.745 28.0099C244.821 28.1359 244.92 28.2221 245.043 28.2685C245.165 28.3149 245.301 28.3381 245.45 28.3381C245.563 28.3381 245.666 28.3298 245.759 28.3132C245.855 28.2966 245.928 28.2817 245.977 28.2685L246.281 29.6754C246.185 29.7086 246.047 29.745 245.868 29.7848C245.692 29.8246 245.477 29.8478 245.222 29.8544C244.771 29.8677 244.365 29.7997 244.004 29.6506C243.642 29.4981 243.356 29.2628 243.144 28.9446C242.935 28.6264 242.832 28.2287 242.835 27.7514V20.2841ZM247.407 29.75V22.1136H249.206V29.75H247.407ZM248.311 21.0298C248.026 21.0298 247.781 20.9354 247.576 20.7464C247.37 20.5542 247.267 20.3239 247.267 20.0554C247.267 19.7836 247.37 19.5533 247.576 19.3643C247.781 19.1721 248.026 19.076 248.311 19.076C248.6 19.076 248.845 19.1721 249.047 19.3643C249.253 19.5533 249.356 19.7836 249.356 20.0554C249.356 20.3239 249.253 20.5542 249.047 20.7464C248.845 20.9354 248.6 21.0298 248.311 21.0298ZM254.685 22.1136V23.5057H250.171V22.1136H254.685ZM251.299 29.75V21.3928C251.299 20.879 251.405 20.4515 251.617 20.1101C251.833 19.7687 252.121 19.5135 252.483 19.3445C252.844 19.1754 253.245 19.0909 253.686 19.0909C253.997 19.0909 254.274 19.1158 254.516 19.1655C254.758 19.2152 254.937 19.2599 255.053 19.2997L254.695 20.6918C254.619 20.6686 254.523 20.6454 254.407 20.6222C254.291 20.5956 254.161 20.5824 254.019 20.5824C253.684 20.5824 253.447 20.6636 253.308 20.826C253.172 20.9851 253.104 21.2138 253.104 21.5121V29.75H251.299ZM255.854 29.75V22.1136H257.654V29.75H255.854ZM256.759 21.0298C256.474 21.0298 256.229 20.9354 256.023 20.7464C255.818 20.5542 255.715 20.3239 255.715 20.0554C255.715 19.7836 255.818 19.5533 256.023 19.3643C256.229 19.1721 256.474 19.076 256.759 19.076C257.048 19.076 257.293 19.1721 257.495 19.3643C257.701 19.5533 257.803 19.7836 257.803 20.0554C257.803 20.3239 257.701 20.5542 257.495 20.7464C257.293 20.9354 257.048 21.0298 256.759 21.0298ZM262.596 29.8991C261.833 29.8991 261.179 29.7318 260.632 29.397C260.088 29.0623 259.669 28.5999 259.374 28.0099C259.082 27.4167 258.937 26.7339 258.937 25.9616C258.937 25.1861 259.086 24.5017 259.384 23.9084C259.682 23.3118 260.103 22.8478 260.647 22.5163C261.194 22.1816 261.84 22.0142 262.586 22.0142C263.206 22.0142 263.754 22.1286 264.231 22.3572C264.712 22.5826 265.095 22.9025 265.38 23.3168C265.665 23.7277 265.827 24.2083 265.867 24.7585H264.147C264.077 24.3906 263.912 24.084 263.65 23.8388C263.391 23.5902 263.045 23.4659 262.611 23.4659C262.243 23.4659 261.92 23.5653 261.641 23.7642C261.363 23.9598 261.146 24.2415 260.99 24.6094C260.837 24.9773 260.761 25.4181 260.761 25.9318C260.761 26.4522 260.837 26.8996 260.99 27.2741C261.142 27.6454 261.356 27.9321 261.631 28.1342C261.91 28.3331 262.236 28.4325 262.611 28.4325C262.876 28.4325 263.113 28.3828 263.322 28.2834C263.534 28.1806 263.711 28.0331 263.854 27.8409C263.996 27.6487 264.094 27.415 264.147 27.1399H265.867C265.824 27.6802 265.665 28.1591 265.39 28.5767C265.115 28.991 264.74 29.3158 264.266 29.5511C263.792 29.7831 263.235 29.8991 262.596 29.8991ZM269.302 29.9041C268.818 29.9041 268.383 29.8179 267.995 29.6456C267.61 29.4699 267.305 29.2114 267.08 28.87C266.858 28.5286 266.747 28.1077 266.747 27.6072C266.747 27.1764 266.826 26.8201 266.986 26.5384C267.145 26.2566 267.362 26.0312 267.637 25.8622C267.912 25.6932 268.222 25.5656 268.567 25.4794C268.915 25.3899 269.274 25.3253 269.645 25.2855C270.093 25.2391 270.456 25.1977 270.734 25.1612C271.013 25.1214 271.215 25.0618 271.341 24.9822C271.47 24.8994 271.535 24.7718 271.535 24.5994V24.5696C271.535 24.1951 271.424 23.9051 271.201 23.6996C270.979 23.4941 270.66 23.3913 270.242 23.3913C269.801 23.3913 269.451 23.4875 269.193 23.6797C268.938 23.8719 268.765 24.099 268.676 24.3608L266.996 24.1222C267.128 23.6581 267.347 23.2704 267.652 22.9588C267.957 22.6439 268.33 22.4086 268.77 22.2528C269.211 22.0938 269.698 22.0142 270.232 22.0142C270.6 22.0142 270.966 22.0573 271.331 22.1435C271.695 22.2296 272.028 22.3722 272.33 22.571C272.632 22.7666 272.874 23.0334 273.056 23.3714C273.241 23.7095 273.334 24.1321 273.334 24.6392V29.75H271.604V28.701H271.545C271.435 28.9131 271.281 29.112 271.082 29.2976C270.887 29.4799 270.64 29.6274 270.341 29.7401C270.046 29.8494 269.7 29.9041 269.302 29.9041ZM269.77 28.5817C270.131 28.5817 270.444 28.5104 270.709 28.3679C270.974 28.2221 271.178 28.0298 271.321 27.7912C271.467 27.5526 271.54 27.2924 271.54 27.0107V26.1108C271.483 26.1572 271.387 26.2003 271.251 26.2401C271.119 26.2798 270.969 26.3146 270.804 26.3445C270.638 26.3743 270.474 26.4008 270.312 26.424C270.149 26.4472 270.008 26.4671 269.889 26.4837C269.621 26.5201 269.38 26.5798 269.168 26.6626C268.956 26.7455 268.789 26.8615 268.666 27.0107C268.543 27.1565 268.482 27.3454 268.482 27.5774C268.482 27.9089 268.603 28.1591 268.845 28.3281C269.087 28.4972 269.395 28.5817 269.77 28.5817ZM278.717 22.1136V23.5057H274.327V22.1136H278.717ZM275.411 20.2841H277.211V27.4531C277.211 27.6951 277.247 27.8807 277.32 28.0099C277.396 28.1359 277.496 28.2221 277.618 28.2685C277.741 28.3149 277.877 28.3381 278.026 28.3381C278.139 28.3381 278.242 28.3298 278.334 28.3132C278.43 28.2966 278.503 28.2817 278.553 28.2685L278.856 29.6754C278.76 29.7086 278.623 29.745 278.444 29.7848C278.268 29.8246 278.053 29.8478 277.797 29.8544C277.347 29.8677 276.941 29.7997 276.579 29.6506C276.218 29.4981 275.931 29.2628 275.719 28.9446C275.51 28.6264 275.408 28.2287 275.411 27.7514V20.2841ZM283.281 29.8991C282.515 29.8991 281.854 29.7401 281.297 29.4219C280.744 29.1004 280.318 28.6463 280.02 28.0597C279.721 27.4697 279.572 26.7753 279.572 25.9766C279.572 25.1911 279.721 24.5017 280.02 23.9084C280.321 23.3118 280.742 22.8478 281.282 22.5163C281.823 22.1816 282.457 22.0142 283.186 22.0142C283.657 22.0142 284.101 22.0904 284.519 22.2429C284.94 22.392 285.311 22.6241 285.633 22.9389C285.957 23.2538 286.213 23.6548 286.398 24.142C286.584 24.6259 286.677 25.2027 286.677 25.8722V26.424H280.417V25.2109H284.951C284.948 24.8662 284.874 24.5597 284.728 24.2912C284.582 24.0194 284.378 23.8056 284.116 23.6499C283.858 23.4941 283.556 23.4162 283.211 23.4162C282.843 23.4162 282.52 23.5057 282.242 23.6847C281.963 23.8603 281.746 24.0923 281.591 24.3807C281.438 24.6657 281.36 24.9789 281.357 25.3203V26.3793C281.357 26.8234 281.438 27.2045 281.601 27.5227C281.763 27.8376 281.99 28.0795 282.282 28.2486C282.573 28.4143 282.915 28.4972 283.306 28.4972C283.568 28.4972 283.805 28.4607 284.017 28.3878C284.229 28.3116 284.413 28.2005 284.569 28.0547C284.724 27.9089 284.842 27.7282 284.922 27.5128L286.602 27.7017C286.496 28.1458 286.294 28.5336 285.995 28.8651C285.7 29.1932 285.323 29.4484 284.862 29.6307C284.401 29.8097 283.874 29.8991 283.281 29.8991Z" fill="#05A84E"/>
</svg>
