<svg width="32" height="32" viewBox="0 0 32 32" fill="none" xmlns="http://www.w3.org/2000/svg">
<path d="M0 16C0 7.16344 7.16344 0 16 0C24.8366 0 32 7.16344 32 16C32 24.8366 24.8366 32 16 32C7.16344 32 0 24.8366 0 16Z" fill="black" fill-opacity="0.04"/>
<path d="M22 18V18.8C22 19.9201 22 20.4802 21.782 20.908C21.5903 21.2843 21.2843 21.5903 20.908 21.782C20.4802 22 19.9201 22 18.8 22H13.2C12.0799 22 11.5198 22 11.092 21.782C10.7157 21.5903 10.4097 21.2843 10.218 20.908C10 20.4802 10 19.9201 10 18.8V18M19.3333 14.6667L16 18M16 18L12.6667 14.6667M16 18V10" stroke="black" stroke-width="1.5" stroke-linecap="round" stroke-linejoin="round"/>
</svg>
