<svg fill="none" height="96" viewBox="0 0 96 96" width="96" xmlns="http://www.w3.org/2000/svg" xmlns:xlink="http://www.w3.org/1999/xlink"><filter id="a" color-interpolation-filters="sRGB" filterUnits="userSpaceOnUse" height="73.6" width="73.6" x="11.2" y="14.4"><feFlood flood-opacity="0" result="BackgroundImageFix"/><feColorMatrix in="SourceAlpha" result="hardAlpha" type="matrix" values="0 0 0 0 0 0 0 0 0 0 0 0 0 0 0 0 0 0 127 0"/><feMorphology in="SourceAlpha" operator="erode" radius="8" result="effect1_dropShadow_308_13473"/><feOffset dy="3.2"/><feGaussianBlur stdDeviation="6.4"/><feColorMatrix type="matrix" values="0 0 0 0 0.14686 0 0 0 0 0.0110818 0 0 0 0 0.0405004 0 0 0 0.16 0"/><feBlend in2="BackgroundImageFix" mode="normal" result="effect1_dropShadow_308_13473"/><feBlend in="SourceGraphic" in2="effect1_dropShadow_308_13473" mode="normal" result="shape"/></filter><filter id="b" color-interpolation-filters="sRGB" filterUnits="userSpaceOnUse" height="34.1333" width="29.3328" x="33.3336" y="34.9333"><feFlood flood-opacity="0" result="BackgroundImageFix"/><feColorMatrix in="SourceAlpha" result="hardAlpha" type="matrix" values="0 0 0 0 0 0 0 0 0 0 0 0 0 0 0 0 0 0 127 0"/><feMorphology in="SourceAlpha" operator="erode" radius="8" result="effect1_dropShadow_308_13473"/><feOffset dy="6.4"/><feGaussianBlur stdDeviation="4.8"/><feColorMatrix type="matrix" values="0 0 0 0 0 0 0 0 0 0 0 0 0 0 0 0 0 0 0.2 0"/><feBlend in2="BackgroundImageFix" mode="normal" result="effect1_dropShadow_308_13473"/><feBlend in="SourceGraphic" in2="effect1_dropShadow_308_13473" mode="normal" result="shape"/></filter><linearGradient id="c" gradientUnits="userSpaceOnUse" x1="48" x2="48" y1="16" y2="80"><stop offset="0" stop-color="#fff"/><stop offset="1" stop-color="#fff" stop-opacity="0"/></linearGradient><linearGradient id="d"><stop offset="0" stop-color="#fff" stop-opacity="0"/><stop offset="1" stop-color="#fff"/></linearGradient><linearGradient id="e" gradientUnits="userSpaceOnUse" x1="48" x2="48" xlink:href="#d" y1="16" y2="80"/><linearGradient id="f" gradientUnits="userSpaceOnUse" x1="48" x2="48" xlink:href="#d" y1="36" y2="60"/><rect fill="#dd0030" fill-opacity=".06" height="96" rx="48" width="96"/><g filter="url(#a)"><path d="m16 48c0 4.2023.8277 8.3635 2.4359 12.2459 1.6081 3.8824 3.9652 7.41 6.9367 10.3815s6.4991 5.3286 10.3815 6.9367c3.8824 1.6082 8.0436 2.4359 12.2459 2.4359s8.3635-.8277 12.2459-2.4359c3.8824-1.6081 7.41-3.9652 10.3815-6.9367s5.3286-6.4991 6.9367-10.3815c1.6082-3.8824 2.4359-8.0436 2.4359-12.2459s-.8277-8.3635-2.4359-12.2459c-1.6081-3.8824-3.9652-7.41-6.9367-10.3815s-6.4991-5.3286-10.3815-6.9367c-3.8824-1.6082-8.0436-2.4359-12.2459-2.4359s-8.3635.8277-12.2459 2.4359c-3.8824 1.6081-7.41 3.9652-10.3815 6.9367s-5.3286 6.4991-6.9367 10.3815c-1.6082 3.8824-2.4359 8.0436-2.4359 12.2459z" fill="#dd0030"/><path d="m16 48c0 4.2023.8277 8.3635 2.4359 12.2459 1.6081 3.8824 3.9652 7.41 6.9367 10.3815s6.4991 5.3286 10.3815 6.9367c3.8824 1.6082 8.0436 2.4359 12.2459 2.4359s8.3635-.8277 12.2459-2.4359c3.8824-1.6081 7.41-3.9652 10.3815-6.9367s5.3286-6.4991 6.9367-10.3815c1.6082-3.8824 2.4359-8.0436 2.4359-12.2459s-.8277-8.3635-2.4359-12.2459c-1.6081-3.8824-3.9652-7.41-6.9367-10.3815s-6.4991-5.3286-10.3815-6.9367c-3.8824-1.6082-8.0436-2.4359-12.2459-2.4359s-8.3635.8277-12.2459 2.4359c-3.8824 1.6081-7.41 3.9652-10.3815 6.9367s-5.3286 6.4991-6.9367 10.3815c-1.6082 3.8824-2.4359 8.0436-2.4359 12.2459z" fill="url(#c)" fill-opacity=".1"/><g stroke-linecap="round" stroke-linejoin="round" stroke-width="1.2"><path d="m48 16.5996c4.1235 0 8.207.8126 12.0166 2.3906 3.8095 1.578 7.2708 3.891 10.1865 6.8067s5.2287 6.377 6.8067 10.1865c1.578 3.8096 2.3906 7.8931 2.3906 12.0166s-.8126 8.207-2.3906 12.0166c-1.578 3.8095-3.891 7.2708-6.8067 10.1865s-6.377 5.2287-10.1865 6.8067c-3.8096 1.578-7.8931 2.3906-12.0166 2.3906s-8.207-.8126-12.0166-2.3906c-3.8095-1.578-7.2708-3.891-10.1865-6.8067s-5.2287-6.377-6.8067-10.1865c-1.578-3.8096-2.3906-7.8931-2.3906-12.0166l.0098-.7725c.095-3.8602.9014-7.6725 2.3808-11.2441 1.578-3.8095 3.891-7.2708 6.8067-10.1865s6.377-5.2287 10.1865-6.8067c3.8096-1.578 7.8931-2.3906 12.0166-2.3906z" stroke="#000" stroke-opacity=".1"/><path d="m48 16.5996c4.1235 0 8.207.8126 12.0166 2.3906 3.8095 1.578 7.2708 3.891 10.1865 6.8067s5.2287 6.377 6.8067 10.1865c1.578 3.8096 2.3906 7.8931 2.3906 12.0166s-.8126 8.207-2.3906 12.0166c-1.578 3.8095-3.891 7.2708-6.8067 10.1865s-6.377 5.2287-10.1865 6.8067c-3.8096 1.578-7.8931 2.3906-12.0166 2.3906s-8.207-.8126-12.0166-2.3906c-3.8095-1.578-7.2708-3.891-10.1865-6.8067s-5.2287-6.377-6.8067-10.1865c-1.578-3.8096-2.3906-7.8931-2.3906-12.0166l.0098-.7725c.095-3.8602.9014-7.6725 2.3808-11.2441 1.578-3.8095 3.891-7.2708 6.8067-10.1865s6.377-5.2287 10.1865-6.8067c3.8096-1.578 7.8931-2.3906 12.0166-2.3906z" stroke="url(#e)" stroke-opacity=".16"/></g></g><g filter="url(#b)"><path d="m36.8076 36.8814c.5178-.5186 1.2197-.8099 1.9515-.8099s1.4337.2913 1.9515.8099l7.2537 7.2738 7.2537-7.2738c.2529-.2721.5577-.4903.8965-.6417.3387-.1513.7044-.2327 1.0752-.2393.3708-.0065.7391.0619 1.083.2011.3439.1393.6562.3466.9185.6096.2622.263.4689.5762.6078.921s.2071.7142.2006 1.086c-.0066.3718-.0877.7385-.2387 1.0782-.1509.3397-.3685.6454-.6398.8989l-7.2537 7.2739 7.2537 7.2738c.4878.525.7533 1.2193.7407 1.9367s-.3025 1.4019-.8084 1.9093c-.506.5074-1.1886.798-1.904.8107-.7155.0126-1.4079-.2537-1.9314-.7428l-7.2537-7.2739-7.2537 7.2739c-.5235.4891-1.2159.7554-1.9313.7428-.7154-.0127-1.398-.3033-1.904-.8107s-.7958-1.1919-.8084-1.9093.2529-1.4117.7407-1.9367l7.2537-7.2738-7.2537-7.2739c-.5171-.5192-.8076-1.223-.8076-1.9569 0-.7338.2905-1.4377.8076-1.9569z" fill="#fff"/><g stroke-width="1.06667"><path d="m57.1807 35.4668c.4423-.0078.8818.0741 1.292.2402.4103.1662.7829.414 1.0957.7276s.5599.6875.7255 1.0986c.1655.4109.2471.851.2393 1.2939-.0078.4433-.1052.8812-.2852 1.2862-.1773.399-.4328.7579-.75 1.0576l-6.8779 6.8975 6.8789 6.8984.0127.0127c.5818.6261.8989 1.4544.8838 2.3096-.0151.8551-.3613 1.6711-.9648 2.2763-.6035.6051-1.4177.9526-2.2715.9678-.8541.0151-1.6812-.3032-2.3057-.8867l-.0127-.0127-6.8769-6.8965-6.876 6.8965-.0127.0127c-.6245.5835-1.4516.9018-2.3057.8867-.8538-.0152-1.668-.3627-2.2715-.9678-.6035-.6052-.9497-1.4212-.9648-2.2763-.015-.8552.302-1.6835.8838-2.3096l.0059-.0068.0068-.0059 6.8779-6.8984-6.8779-6.8965c-.6169-.6194-.9629-1.4593-.9629-2.334.0001-.8746.3461-1.7138.9629-2.333h.001c.6176-.6185 1.4546-.9667 2.3281-.9668.8736 0 1.7114.3482 2.3291.9668l6.876 6.8945 6.8769-6.8945c.2989-.318.6574-.5739 1.0557-.752.4043-.1806.8415-.2783 1.2842-.2861z" stroke="#000" stroke-opacity=".05"/><path d="m57.1807 35.4668c.4423-.0078.8818.0741 1.292.2402.4103.1662.7829.414 1.0957.7276s.5599.6875.7255 1.0986c.1655.4109.2471.851.2393 1.2939-.0078.4433-.1052.8812-.2852 1.2862-.1773.399-.4328.7579-.75 1.0576l-6.8779 6.8975 6.8789 6.8984.0127.0127c.5818.6261.8989 1.4544.8838 2.3096-.0151.8551-.3613 1.6711-.9648 2.2763-.6035.6051-1.4177.9526-2.2715.9678-.8541.0151-1.6812-.3032-2.3057-.8867l-.0127-.0127-6.8769-6.8965-6.876 6.8965-.0127.0127c-.6245.5835-1.4516.9018-2.3057.8867-.8538-.0152-1.668-.3627-2.2715-.9678-.6035-.6052-.9497-1.4212-.9648-2.2763-.015-.8552.302-1.6835.8838-2.3096l.0059-.0068.0068-.0059 6.8779-6.8984-6.8779-6.8965c-.6169-.6194-.9629-1.4593-.9629-2.334.0001-.8746.3461-1.7138.9629-2.333h.001c.6176-.6185 1.4546-.9667 2.3281-.9668.8736 0 1.7114.3482 2.3291.9668l6.876 6.8945 6.8769-6.8945c.2989-.318.6574-.5739 1.0557-.752.4043-.1806.8415-.2783 1.2842-.2861z" stroke="url(#f)" stroke-opacity=".16"/></g></g></svg>