<svg width="24" height="24" viewBox="0 0 24 24" fill="none" xmlns="http://www.w3.org/2000/svg">
<path d="M11.9996 3C12.463 3 12.914 3.15149 13.2831 3.43159L13.2822 3.43243L14.2564 4.16798C17.108 6.33233 19.551 8.98774 21.4706 12.008L21.7841 12.4992C21.9169 12.708 21.9914 12.9489 21.9993 13.1961C22.0071 13.4435 21.948 13.6887 21.8287 13.9056C21.7094 14.1225 21.5342 14.3036 21.321 14.4296C21.1612 14.524 20.9843 14.5846 20.8016 14.6093L20.6166 14.6219H19.4987C19.5661 16.0031 19.4947 17.3885 19.2836 18.7581C19.086 20.0476 17.9734 20.9999 16.667 21L14.4606 20.9983C14.1043 20.9981 13.8151 20.7094 13.8151 20.3535V15.873C13.8151 14.8721 13.0025 14.0601 11.9996 14.0601C10.9975 14.0602 10.1857 14.8729 10.1857 15.873V20.3535C10.1857 20.7094 9.89655 20.9981 9.54021 20.9983L7.33299 21C6.10921 21 5.05526 20.1638 4.76434 18.9957L4.71643 18.7581C4.50617 17.3901 4.43475 16.0048 4.50126 14.6235H3.38252C3.13504 14.6234 2.89203 14.5571 2.679 14.4313C2.46581 14.3052 2.28978 14.1242 2.17048 13.9073C2.05119 13.6904 1.99286 13.4451 2.0007 13.1978C2.00855 12.9505 2.08231 12.7097 2.21503 12.5009L2.21587 12.5L2.52855 12.0097C4.44808 8.98878 6.89097 6.33368 9.74277 4.16882L9.74361 4.16798L10.7169 3.43159L10.859 3.33251C11.1987 3.11601 11.5943 3.00004 11.9996 3ZM15.1062 19.7086L16.667 19.7103L16.7914 19.7044C17.4066 19.6481 17.9124 19.1799 18.0068 18.5624L18.0077 18.5616C18.239 17.0609 18.2929 15.5406 18.1674 14.0307C18.1524 13.8511 18.2133 13.673 18.3355 13.5404C18.4576 13.4078 18.6299 13.3322 18.8104 13.3321H20.6166C20.6331 13.3321 20.6496 13.3279 20.6637 13.3195C20.6778 13.3111 20.6894 13.2987 20.6973 13.2843C20.7052 13.2699 20.7088 13.2537 20.7083 13.2373C20.7077 13.2208 20.7028 13.205 20.694 13.1911L20.3821 12.7007L20.3813 12.6999C18.544 9.80896 16.2057 7.26831 13.4764 5.19658L12.5022 4.45935C12.3578 4.34974 12.1809 4.28973 11.9996 4.28973C11.8184 4.28977 11.6421 4.34902 11.4978 4.45851L11.497 4.45935L10.5228 5.19658C7.79338 7.26873 5.45502 9.81017 3.61787 12.7015L3.30519 13.1928C3.2965 13.2066 3.29142 13.2226 3.2909 13.2389C3.29042 13.2553 3.29475 13.2716 3.30267 13.286C3.31062 13.3004 3.32212 13.3128 3.33629 13.3212C3.35045 13.3295 3.36693 13.3338 3.38336 13.3338H5.18881C5.36919 13.3338 5.54148 13.4095 5.66371 13.5421C5.78579 13.6746 5.84739 13.8521 5.83265 14.0316C5.70858 15.5427 5.76205 17.063 5.99235 18.5616L6.01673 18.6834C6.16563 19.2814 6.70525 19.7091 7.33215 19.7094L8.89468 19.7086V15.873C8.89468 14.1611 10.284 12.7705 11.9996 12.7704C13.7145 12.7704 15.1062 14.1588 15.1062 15.873V19.7086Z" fill="#CCCCCC"/>
</svg>
