<svg width="20" height="20" viewBox="0 0 20 20" fill="none" xmlns="http://www.w3.org/2000/svg">
<path d="M18.3333 3.40845H1.66667C1.22464 3.40845 0.800716 3.58404 0.488155 3.8966C0.175595 4.20916 0 4.63309 0 5.07511L0 14.9251C0 15.3671 0.175595 15.7911 0.488155 16.1036C0.800716 16.4162 1.22464 16.5918 1.66667 16.5918H18.3333C18.7754 16.5918 19.1993 16.4162 19.5118 16.1036C19.8244 15.7911 20 15.3671 20 14.9251V5.07511C20 4.63309 19.8244 4.20916 19.5118 3.8966C19.1993 3.58404 18.7754 3.40845 18.3333 3.40845ZM3.23333 6.52511C3.23333 6.3041 3.32113 6.09214 3.47741 5.93586C3.63369 5.77958 3.84565 5.69178 4.06667 5.69178H6.95C7.17101 5.69178 7.38298 5.77958 7.53926 5.93586C7.69554 6.09214 7.78333 6.3041 7.78333 6.52511V9.40845C7.78333 9.62946 7.69554 9.84142 7.53926 9.9977C7.38298 10.154 7.17101 10.2418 6.95 10.2418H4.06667C3.84565 10.2418 3.63369 10.154 3.47741 9.9977C3.32113 9.84142 3.23333 9.62946 3.23333 9.40845V6.52511ZM7.275 14.0251H3.23333C3.06757 14.0251 2.9086 13.9593 2.79139 13.8421C2.67418 13.7248 2.60833 13.5659 2.60833 13.4001C2.60833 13.2344 2.67418 13.0754 2.79139 12.9582C2.9086 12.841 3.06757 12.7751 3.23333 12.7751H7.275C7.44076 12.7751 7.59973 12.841 7.71694 12.9582C7.83415 13.0754 7.9 13.2344 7.9 13.4001C7.9 13.5659 7.83415 13.7248 7.71694 13.8421C7.59973 13.9593 7.44076 14.0251 7.275 14.0251ZM16.5833 14.0251H12.725C12.5592 14.0251 12.4003 13.9593 12.2831 13.8421C12.1658 13.7248 12.1 13.5659 12.1 13.4001C12.1 13.2344 12.1658 13.0754 12.2831 12.9582C12.4003 12.841 12.5592 12.7751 12.725 12.7751H16.5833C16.7491 12.7751 16.9081 12.841 17.0253 12.9582C17.1425 13.0754 17.2083 13.2344 17.2083 13.4001C17.2083 13.5659 17.1425 13.7248 17.0253 13.8421C16.9081 13.9593 16.7491 14.0251 16.5833 14.0251ZM16.5833 10.6168H11.175C11.0092 10.6168 10.8503 10.5509 10.7331 10.4337C10.6158 10.3165 10.55 10.1575 10.55 9.99178C10.55 9.82602 10.6158 9.66705 10.7331 9.54984C10.8503 9.43263 11.0092 9.36678 11.175 9.36678H16.5833C16.7491 9.36678 16.9081 9.43263 17.0253 9.54984C17.1425 9.66705 17.2083 9.82602 17.2083 9.99178C17.2083 10.1575 17.1425 10.3165 17.0253 10.4337C16.9081 10.5509 16.7491 10.6168 16.5833 10.6168ZM16.5833 7.20845H12.725C12.5592 7.20845 12.4003 7.1426 12.2831 7.02539C12.1658 6.90818 12.1 6.74921 12.1 6.58345C12.1 6.41769 12.1658 6.25872 12.2831 6.14151C12.4003 6.0243 12.5592 5.95845 12.725 5.95845H16.5833C16.7491 5.95845 16.9081 6.0243 17.0253 6.14151C17.1425 6.25872 17.2083 6.41769 17.2083 6.58345C17.2083 6.74921 17.1425 6.90818 17.0253 7.02539C16.9081 7.1426 16.7491 7.20845 16.5833 7.20845Z" fill="#6D6D6D"/>
</svg>
