<svg fill="none" height="20" viewBox="0 0 22 20" width="22" xmlns="http://www.w3.org/2000/svg"><path d="m3.27209 18.7279 6.59654-6.5965c.39597-.396.59407-.5941.82237-.6682.2008-.0653.4172-.0653.618 0 .2283.0741.4264.2722.8224.6682l6.5525 6.5525m-5.6839-5.6839 2.8686-2.8686c.396-.39605.5941-.59405.8224-.66824.2008-.06526.4172-.06526.618 0 .2283.07419.4264.27219.8224.66824l2.8686 2.8686m-12-6c0 1.10457-.89543 2-2 2s-2-.89543-2-2 .89543-2 2-2 2 .89543 2 2zm-3.2 12h10.4c1.6802 0 2.5202 0 3.162-.327.5645-.2876 1.0234-.7465 1.311-1.311.327-.6418.327-1.4818.327-3.162v-8.4c0-1.68016 0-2.52024-.327-3.16197-.2876-.56449-.7465-1.02343-1.311-1.31105-.6418-.32698-1.4818-.32698-3.162-.32698h-10.4c-1.68016 0-2.52024 0-3.16197.32698-.56449.28762-1.02343.74656-1.31105 1.31105-.32698.64173-.32698 1.48181-.32698 3.16197v8.4c0 1.6802 0 2.5202.32698 3.162.28762.5645.74656 1.0234 1.31105 1.311.64173.327 1.48181.327 3.16197.327z" stroke="#888" stroke-linecap="round" stroke-linejoin="round" stroke-width="2"/></svg>