<svg width="41" height="64" viewBox="0 0 41 64" fill="none" xmlns="http://www.w3.org/2000/svg">
<path d="M4.32845 31.6257C4.43058 33.4583 3.99009 34.4709 2.64516 36.2587L5.65103 33.6452C5.41056 36.4963 3.72727 38.6346 1.20235 38.991C0.930108 41.6778 0.659674 43.1854 0 45.8812H4.32845C3.51802 44.5498 3.28151 43.7506 3.36657 42.1985C4.20821 41.2481 5.29032 41.1293 7.21408 40.773C9.13783 40.4166 11.3021 39.4662 13.346 36.1399C13.2528 37.4412 13.0085 38.0889 12.2639 39.1098C13.4384 39.5123 13.9811 39.9275 14.6686 41.1294H19.9589L19.3578 36.2587L21.4018 41.6045H23.085L25.4897 46H28.9765C27.6001 44.4148 27.1717 43.4823 27.173 41.7233C27.9304 41.6875 28.3228 41.5203 28.9765 41.0106L29.9384 42.7925L30.4194 41.4857L31.8622 44.3369L32.824 43.1489L35.8299 44.6932C38.2901 42.0883 41 38.397 41 37.4467C41 36.4963 40.5054 33.6452 40.1584 33.0512C39.8113 32.4573 37.9941 32.2196 37.9941 32.2196L38.3548 31.1505C36.3162 32.2516 34.7478 33.17 34.7478 33.8828C34.7478 34.5956 35.3775 34.9815 36.5513 35.1896C36.3517 35.6734 35.9501 35.9023 35.1085 35.9023C34.2669 35.9023 32.824 34.9519 32.824 33.764C32.824 32.576 34.0469 31.2994 36.1906 30.9129C33.162 26.5047 28.3754 22.122 27.0528 22.0032C26.4278 21.947 24.7814 22.6471 22.9648 23.1911C20.9372 23.7984 18.7566 24.2603 18.7566 24.2603L19.9589 24.9731L13.5865 27.1114L14.1877 27.349L4.32845 31.6257Z" fill="white"/>
<path d="M10.5806 40.4166C9.59334 41.2024 8.89778 41.3911 7.45455 41.3669L9.85924 45.8812H14.1877C12.5044 44.5744 11.4223 42.9113 10.5806 40.4166Z" fill="white"/>
<path d="M20.1538 42.0036C19.1919 42.0036 18.5165 42.0277 17.0733 42.0036V45.8812H21.1613C19.9589 44.812 20.1538 44.5337 20.1538 42.0036Z" fill="white"/>
</svg>
