<svg width="36" height="21" viewBox="0 0 36 21" fill="none" xmlns="http://www.w3.org/2000/svg">
<rect x="0.25" y="0.25" width="35.5" height="20.5" rx="4.25" fill="#E4F7EE"/>
<rect x="0.25" y="0.25" width="35.5" height="20.5" rx="4.25" stroke="#B6CFC2" stroke-width="0.5"/>
<path d="M7.16577 14.5V7.22727H9.89304C10.4518 7.22727 10.9205 7.33144 11.2993 7.53977C11.6804 7.74811 11.9681 8.03456 12.1622 8.39915C12.3587 8.76136 12.457 9.1733 12.457 9.63494C12.457 10.1013 12.3587 10.5156 12.1622 10.8778C11.9657 11.2401 11.6757 11.5253 11.2922 11.7337C10.9087 11.9396 10.4364 12.0426 9.87528 12.0426H8.06776V10.9595H9.69773C10.0244 10.9595 10.2919 10.9027 10.5003 10.7891C10.7086 10.6754 10.8625 10.5192 10.9619 10.3203C11.0637 10.1214 11.1146 9.89299 11.1146 9.63494C11.1146 9.37689 11.0637 9.14962 10.9619 8.95312C10.8625 8.75663 10.7074 8.60393 10.4967 8.49503C10.2884 8.38376 10.0197 8.32812 9.69062 8.32812H8.48324V14.5H7.16577ZM14.1247 14.5H12.7185L15.2788 7.22727H16.9053L19.4692 14.5H18.0629L16.1205 8.71875H16.0636L14.1247 14.5ZM14.1709 11.6484H18.0061V12.7067H14.1709V11.6484ZM22.1446 7.22727V14.5H20.8271V7.22727H22.1446ZM26.4357 14.5H23.9712V7.22727H26.4854C27.2075 7.22727 27.8278 7.37287 28.3462 7.66406C28.8671 7.95289 29.2672 8.36837 29.5465 8.91051C29.8259 9.45265 29.9656 10.1013 29.9656 10.8565C29.9656 11.6141 29.8247 12.2652 29.543 12.8097C29.2636 13.3542 28.86 13.772 28.332 14.0632C27.8065 14.3544 27.1744 14.5 26.4357 14.5ZM25.2887 13.3601H26.3718C26.8784 13.3601 27.301 13.2678 27.6396 13.0831C27.9781 12.8961 28.2326 12.6179 28.4031 12.2486C28.5735 11.8769 28.6587 11.4129 28.6587 10.8565C28.6587 10.3002 28.5735 9.83854 28.4031 9.47159C28.2326 9.10227 27.9805 8.82647 27.6467 8.64418C27.3152 8.45952 26.9033 8.36719 26.4109 8.36719H25.2887V13.3601Z" fill="#088D45"/>
</svg>
