<svg width="56" height="21" viewBox="0 0 56 21" fill="none" xmlns="http://www.w3.org/2000/svg">
<rect x="0.25" y="0.25" width="55.5" height="20.5" rx="4.25" fill="#FFF7ED"/>
<rect x="0.25" y="0.25" width="55.5" height="20.5" rx="4.25" stroke="#CFC3B6" stroke-width="0.5"/>
<path d="M7.206 14.5V7.22727H9.93327C10.492 7.22727 10.9607 7.33144 11.3395 7.53977C11.7207 7.74811 12.0083 8.03456 12.2024 8.39915C12.3989 8.76136 12.4972 9.1733 12.4972 9.63494C12.4972 10.1013 12.3989 10.5156 12.2024 10.8778C12.006 11.2401 11.7159 11.5253 11.3324 11.7337C10.9489 11.9396 10.4766 12.0426 9.91552 12.0426H8.10799V10.9595H9.73796C10.0647 10.9595 10.3322 10.9027 10.5405 10.7891C10.7489 10.6754 10.9027 10.5192 11.0022 10.3203C11.104 10.1214 11.1549 9.89299 11.1549 9.63494C11.1549 9.37689 11.104 9.14962 11.0022 8.95312C10.9027 8.75663 10.7477 8.60393 10.537 8.49503C10.3286 8.38376 10.0599 8.32812 9.73086 8.32812H8.52347V14.5H7.206ZM14.1649 14.5H12.7587L15.3191 7.22727H16.9455L19.5094 14.5H18.1032L16.1607 8.71875H16.1039L14.1649 14.5ZM14.2111 11.6484H18.0463V12.7067H14.2111V11.6484ZM20.8673 14.5V7.22727H23.5946C24.1533 7.22727 24.6221 7.32434 25.0009 7.51847C25.382 7.71259 25.6696 7.98485 25.8638 8.33523C26.0603 8.68324 26.1585 9.08925 26.1585 9.55327C26.1585 10.0196 26.0591 10.4245 25.8602 10.7678C25.6637 11.1087 25.3737 11.3726 24.9902 11.5597C24.6067 11.7443 24.1356 11.8366 23.5768 11.8366H21.6344V10.7429H23.3993C23.726 10.7429 23.9935 10.6979 24.2018 10.608C24.4102 10.5156 24.5641 10.3819 24.6635 10.2067C24.7653 10.0291 24.8162 9.81132 24.8162 9.55327C24.8162 9.29522 24.7653 9.07505 24.6635 8.89276C24.5617 8.7081 24.4066 8.56842 24.1983 8.47372C23.99 8.37666 23.7213 8.32812 23.3922 8.32812H22.1848V14.5H20.8673ZM24.6244 11.2045L26.4249 14.5H24.9547L23.1862 11.2045H24.6244ZM27.4516 8.33168V7.22727H33.2542V8.33168H31.0063V14.5H29.6995V8.33168H27.4516ZM36.0903 7.22727V14.5H34.7728V7.22727H36.0903ZM38.8509 14.5H37.4446L40.005 7.22727H41.6314L44.1953 14.5H42.7891L40.8466 8.71875H40.7898L38.8509 14.5ZM38.8971 11.6484H42.7323V12.7067H38.8971V11.6484ZM45.5533 14.5V7.22727H46.8707V13.3956H50.0739V14.5H45.5533Z" fill="#BB5502"/>
</svg>
