<svg fill="none" height="19" viewBox="0 0 15 19" width="15" xmlns="http://www.w3.org/2000/svg"><path d="m5.75 12.4167h3.33333m-4.33333 5h5.3333c1.4002 0 2.1002 0 2.635-.2725.4704-.2397.8529-.6222 1.0925-1.0926.2725-.5347.2725-1.2348.2725-2.6349v-8.6667c0-1.40013 0-2.1002-.2725-2.63498-.2396-.4704-.6221-.85285-1.0925-1.09254-.5348-.27248-1.2348-.27248-2.635-.27248h-5.3333c-1.40013 0-2.1002 0-2.63498.27248-.4704.23969-.85285.62214-1.09254 1.09254-.27248.53478-.27248 1.23485-.27248 2.63498v8.6667c0 1.4001 0 2.1002.27248 2.6349.23969.4704.62214.8529 1.09254 1.0926.53478.2725 1.23485.2725 2.63498.2725zm5.16667-10.83337c0 1.38071-1.11929 2.5-2.5 2.5-1.38072 0-2.5-1.11929-2.5-2.5s1.11928-2.5 2.5-2.5c1.38071 0 2.5 1.11929 2.5 2.5z" stroke="#888" stroke-linecap="round" stroke-linejoin="round" stroke-width="1.5"/></svg>