<svg width="24" height="24" viewBox="0 0 24 24" fill="none" xmlns="http://www.w3.org/2000/svg">
<path d="M12 11.9387C13.8345 11.9387 15.5968 12.6672 16.9068 13.9696C18.2171 15.2723 18.9698 17.0453 18.9999 18.9059C19.0043 19.1815 18.8477 19.4338 18.6021 19.5478C16.5309 20.5085 14.2784 21.0039 12 21C9.64571 21 7.40899 20.4807 5.39789 19.5478C5.15228 19.4338 4.99575 19.1815 5.00009 18.9059C5.03016 17.0453 5.78295 15.2723 7.09318 13.9696C8.40316 12.6672 10.1655 11.9387 12 11.9387ZM12 13.3233C10.5162 13.3233 9.09336 13.9127 8.03785 14.9621C7.09028 15.9043 6.50803 17.1493 6.38137 18.4741C8.10853 19.2085 10.0064 19.6154 12 19.6154H12.0009C13.9316 19.6188 15.8414 19.2293 17.6177 18.4741C17.4911 17.1493 16.9097 15.9042 15.9621 14.9621C14.9066 13.9127 13.4838 13.3233 12 13.3233ZM14.4838 6.88792C14.4838 6.22663 14.2247 5.59019 13.7597 5.12019C13.2944 4.64992 12.6613 4.38461 12 4.38461C11.3387 4.38461 10.7056 4.64992 10.2403 5.12019C9.77529 5.59019 9.51616 6.22663 9.51616 6.88792C9.51625 7.54903 9.77543 8.18483 10.2403 8.65474C10.7056 9.12501 11.3387 9.39032 12 9.39032C12.6613 9.39032 13.2944 9.12501 13.7597 8.65474C14.2246 8.18483 14.4837 7.54903 14.4838 6.88792ZM15.8387 6.88792C15.8386 7.92124 15.4329 8.91077 14.7123 9.63911C13.9918 10.3673 13.0158 10.7749 12 10.7749C10.9842 10.7749 10.0082 10.3673 9.28771 9.63911C8.56714 8.91077 8.16143 7.92124 8.16134 6.88792C8.16134 5.85441 8.56699 4.86425 9.28771 4.13582C10.0082 3.40763 10.9842 3 12 3C13.0158 3 13.9918 3.40763 14.7123 4.13582C15.433 4.86425 15.8387 5.85441 15.8387 6.88792Z" fill="#CCCCCC"/>
</svg>
