<svg width="370" height="90" viewBox="0 0 370 90" fill="none" xmlns="http://www.w3.org/2000/svg">
<path d="M13.1186 15V4.81818H14.6548V9.2429H19.7308V4.81818H21.272V15H19.7308V10.5604H14.6548V15H13.1186ZM26.5211 15.1541C25.7687 15.1541 25.1208 14.9934 24.5772 14.6719C24.037 14.3471 23.6194 13.8913 23.3244 13.3047C23.0327 12.7147 22.8869 12.0237 22.8869 11.2315C22.8869 10.4493 23.0327 9.75994 23.3244 9.16335C23.6194 8.56676 24.0303 8.10109 24.5573 7.76633C25.0876 7.43158 25.7074 7.2642 26.4167 7.2642C26.8476 7.2642 27.2652 7.33546 27.6695 7.47798C28.0739 7.6205 28.4368 7.84422 28.7583 8.14915C29.0798 8.45407 29.3334 8.85014 29.519 9.33736C29.7046 9.82126 29.7974 10.4096 29.7974 11.1023V11.6293H23.7271V10.5156H28.3407C28.3407 10.1245 28.2612 9.77817 28.1021 9.47656C27.943 9.17164 27.7193 8.93134 27.4309 8.75568C27.1459 8.58002 26.8111 8.49219 26.4266 8.49219C26.009 8.49219 25.6445 8.59493 25.3329 8.80043C25.0247 9.0026 24.786 9.26776 24.617 9.59588C24.4513 9.92069 24.3684 10.2737 24.3684 10.6548V11.5249C24.3684 12.0353 24.4579 12.4695 24.6369 12.8274C24.8192 13.1854 25.0727 13.4588 25.3975 13.6477C25.7223 13.8333 26.1018 13.9261 26.536 13.9261C26.8177 13.9261 27.0746 13.8864 27.3066 13.8068C27.5386 13.724 27.7391 13.6013 27.9082 13.4389C28.0772 13.2765 28.2065 13.076 28.296 12.8374L29.7029 13.0909C29.5902 13.5052 29.3881 13.8681 29.0964 14.1797C28.808 14.4879 28.4451 14.7282 28.0076 14.9006C27.5734 15.0696 27.0779 15.1541 26.5211 15.1541ZM32.7732 4.81818V15H31.2867V4.81818H32.7732ZM34.613 17.8636V7.36364H36.0647V8.60156H36.189C36.2752 8.44247 36.3995 8.25852 36.5619 8.04972C36.7243 7.84091 36.9497 7.65862 37.238 7.50284C37.5264 7.34375 37.9075 7.2642 38.3815 7.2642C38.998 7.2642 39.5482 7.41998 40.0321 7.73153C40.516 8.04309 40.8955 8.49219 41.1706 9.07884C41.449 9.66548 41.5882 10.3714 41.5882 11.1967C41.5882 12.022 41.4506 12.7296 41.1755 13.3196C40.9004 13.9062 40.5226 14.3587 40.042 14.6768C39.5614 14.9917 39.0129 15.1491 38.3964 15.1491C37.9324 15.1491 37.5529 15.0713 37.2579 14.9155C36.9663 14.7597 36.7376 14.5774 36.5718 14.3686C36.4061 14.1598 36.2785 13.9742 36.189 13.8118H36.0995V17.8636H34.613ZM36.0697 11.1818C36.0697 11.7187 36.1476 12.1894 36.3034 12.5938C36.4592 12.9981 36.6845 13.3146 36.9795 13.5433C37.2745 13.7687 37.6358 13.8814 38.0633 13.8814C38.5075 13.8814 38.8787 13.7637 39.177 13.5284C39.4753 13.2898 39.7006 12.9666 39.8531 12.5589C40.0089 12.1513 40.0868 11.6922 40.0868 11.1818C40.0868 10.678 40.0105 10.2256 39.8581 9.82457C39.7089 9.42353 39.4835 9.10701 39.1819 8.875C38.8836 8.64299 38.5108 8.52699 38.0633 8.52699C37.6325 8.52699 37.2679 8.63802 36.9696 8.86009C36.6746 9.08215 36.4509 9.39205 36.2984 9.78977C36.1459 10.1875 36.0697 10.6515 36.0697 11.1818Z" fill="#6A6A6A"/>
<rect y="28" width="370" height="62" rx="12" fill="white"/>
<g clip-path="url(#clip0_1188_29870)">
<path d="M19.575 47.4998C19.7709 46.9429 20.1576 46.4733 20.6666 46.1741C21.1756 45.875 21.774 45.7656 22.3559 45.8654C22.9378 45.9652 23.4656 46.2678 23.8459 46.7194C24.2261 47.1711 24.4342 47.7428 24.4333 48.3332C24.4333 49.9998 21.9333 50.8332 21.9333 50.8332M22 54.1665H22.0083M30.3333 49.9998C30.3333 54.6022 26.6023 58.3332 22 58.3332C17.3976 58.3332 13.6666 54.6022 13.6666 49.9998C13.6666 45.3975 17.3976 41.6665 22 41.6665C26.6023 41.6665 30.3333 45.3975 30.3333 49.9998Z" stroke="#6D6D6D" stroke-width="1.875" stroke-linecap="round" stroke-linejoin="round"/>
</g>
<path d="M45.0043 55V44.8182H48.8224C49.6046 44.8182 50.2609 44.9541 50.7912 45.2259C51.3248 45.4976 51.7275 45.8788 51.9993 46.3693C52.2744 46.8565 52.4119 47.425 52.4119 48.0746C52.4119 48.7275 52.2727 49.2943 51.9943 49.7749C51.7192 50.2521 51.3132 50.6217 50.7763 50.8835C50.2393 51.142 49.5798 51.2713 48.7976 51.2713H46.0781V49.7401H48.549C49.0064 49.7401 49.3809 49.6771 49.6726 49.5511C49.9643 49.4219 50.1797 49.2346 50.3189 48.9893C50.4614 48.7408 50.5327 48.4358 50.5327 48.0746C50.5327 47.7133 50.4614 47.4051 50.3189 47.1499C50.1764 46.8913 49.9593 46.6958 49.6676 46.5632C49.3759 46.4273 48.9998 46.3594 48.5391 46.3594H46.8487V55H45.0043ZM50.2642 50.3864L52.7848 55H50.7266L48.2507 50.3864H50.2642ZM56.9415 55.1491C56.1759 55.1491 55.5146 54.9901 54.9578 54.6719C54.4043 54.3504 53.9784 53.8963 53.6801 53.3097C53.3818 52.7197 53.2327 52.0253 53.2327 51.2266C53.2327 50.4411 53.3818 49.7517 53.6801 49.1584C53.9817 48.5618 54.4027 48.0978 54.9429 47.7663C55.4832 47.4316 56.1179 47.2642 56.847 47.2642C57.3177 47.2642 57.7618 47.3404 58.1794 47.4929C58.6003 47.642 58.9716 47.8741 59.2931 48.1889C59.6179 48.5038 59.8731 48.9048 60.0587 49.392C60.2443 49.8759 60.3371 50.4527 60.3371 51.1222V51.674H54.0779V50.4609H58.6119C58.6086 50.1162 58.5341 49.8097 58.3882 49.5412C58.2424 49.2694 58.0386 49.0556 57.7767 48.8999C57.5182 48.7441 57.2166 48.6662 56.8719 48.6662C56.504 48.6662 56.1808 48.7557 55.9024 48.9347C55.624 49.1103 55.4069 49.3423 55.2512 49.6307C55.0987 49.9157 55.0208 50.2289 55.0175 50.5703V51.6293C55.0175 52.0734 55.0987 52.4545 55.2611 52.7727C55.4235 53.0876 55.6505 53.3295 55.9422 53.4986C56.2339 53.6643 56.5753 53.7472 56.9664 53.7472C57.2282 53.7472 57.4652 53.7107 57.6773 53.6378C57.8894 53.5616 58.0734 53.4505 58.2291 53.3047C58.3849 53.1589 58.5026 52.9782 58.5821 52.7628L60.2625 52.9517C60.1565 53.3958 59.9543 53.7836 59.656 54.1151C59.361 54.4432 58.9832 54.6984 58.5225 54.8807C58.0618 55.0597 57.5348 55.1491 56.9415 55.1491ZM61.4996 57.8636V47.3636H63.2695V48.6264H63.3739C63.4667 48.4408 63.5977 48.2436 63.7667 48.0348C63.9357 47.8227 64.1644 47.642 64.4528 47.4929C64.7411 47.3404 65.109 47.2642 65.5565 47.2642C66.1464 47.2642 66.6784 47.415 67.1523 47.7166C67.6296 48.0149 68.0075 48.4574 68.2859 49.044C68.5676 49.6274 68.7084 50.3433 68.7084 51.1918C68.7084 52.0303 68.5709 52.7429 68.2958 53.3295C68.0207 53.9162 67.6462 54.3636 67.1722 54.6719C66.6983 54.9801 66.1613 55.1342 65.5614 55.1342C65.1239 55.1342 64.761 55.0613 64.4726 54.9155C64.1843 54.7696 63.9523 54.594 63.7766 54.3885C63.6043 54.1797 63.47 53.9825 63.3739 53.7969H63.2994V57.8636H61.4996ZM63.2646 51.1818C63.2646 51.6757 63.3342 52.1082 63.4734 52.4794C63.6159 52.8506 63.8197 53.1406 64.0849 53.3494C64.3533 53.5549 64.6781 53.6577 65.0593 53.6577C65.457 53.6577 65.7901 53.5516 66.0586 53.3395C66.3271 53.1241 66.5292 52.8307 66.6651 52.4595C66.8043 52.085 66.8739 51.6591 66.8739 51.1818C66.8739 50.7079 66.806 50.2869 66.6701 49.919C66.5342 49.5511 66.332 49.2628 66.0636 49.054C65.7951 48.8452 65.4603 48.7408 65.0593 48.7408C64.6748 48.7408 64.3484 48.8419 64.0799 49.044C63.8114 49.2462 63.6076 49.5296 63.4684 49.8942C63.3325 50.2588 63.2646 50.688 63.2646 51.1818ZM73.2206 55.1491C72.4749 55.1491 71.8286 54.9851 71.2817 54.657C70.7348 54.3288 70.3106 53.8698 70.009 53.2798C69.7107 52.6899 69.5615 52.0005 69.5615 51.2116C69.5615 50.4228 69.7107 49.7318 70.009 49.1385C70.3106 48.5452 70.7348 48.0845 71.2817 47.7564C71.8286 47.4283 72.4749 47.2642 73.2206 47.2642C73.9663 47.2642 74.6126 47.4283 75.1595 47.7564C75.7064 48.0845 76.129 48.5452 76.4273 49.1385C76.7289 49.7318 76.8797 50.4228 76.8797 51.2116C76.8797 52.0005 76.7289 52.6899 76.4273 53.2798C76.129 53.8698 75.7064 54.3288 75.1595 54.657C74.6126 54.9851 73.9663 55.1491 73.2206 55.1491ZM73.2305 53.7074C73.6349 53.7074 73.973 53.5964 74.2448 53.3743C74.5165 53.1489 74.7187 52.8473 74.8513 52.4695C74.9872 52.0916 75.0551 51.6707 75.0551 51.2067C75.0551 50.7393 74.9872 50.3168 74.8513 49.9389C74.7187 49.5578 74.5165 49.2545 74.2448 49.0291C73.973 48.8037 73.6349 48.6911 73.2305 48.6911C72.8162 48.6911 72.4716 48.8037 72.1965 49.0291C71.9247 49.2545 71.7208 49.5578 71.585 49.9389C71.4524 50.3168 71.3861 50.7393 71.3861 51.2067C71.3861 51.6707 71.4524 52.0916 71.585 52.4695C71.7208 52.8473 71.9247 53.1489 72.1965 53.3743C72.4716 53.5964 72.8162 53.7074 73.2305 53.7074ZM78.0472 55V47.3636H79.7922V48.6364H79.8718C80.011 48.1955 80.2496 47.8558 80.5877 47.6172C80.9291 47.3752 81.3185 47.2543 81.756 47.2543C81.8555 47.2543 81.9665 47.2592 82.0891 47.2692C82.2151 47.2758 82.3195 47.2874 82.4023 47.304V48.9595C82.3261 48.933 82.2051 48.9098 82.0394 48.8899C81.877 48.8667 81.7196 48.8551 81.5671 48.8551C81.239 48.8551 80.944 48.9264 80.6822 49.0689C80.4236 49.2081 80.2198 49.402 80.0707 49.6506C79.9215 49.8991 79.8469 50.1858 79.8469 50.5107V55H78.0472ZM87.4614 47.3636V48.7557H83.0714V47.3636H87.4614ZM84.1553 45.5341H85.955V52.7031C85.955 52.9451 85.9914 53.1307 86.0643 53.2599C86.1406 53.3859 86.24 53.4721 86.3626 53.5185C86.4853 53.5649 86.6212 53.5881 86.7703 53.5881C86.883 53.5881 86.9857 53.5798 87.0786 53.5632C87.1747 53.5466 87.2476 53.5317 87.2973 53.5185L87.6006 54.9254C87.5045 54.9586 87.3669 54.995 87.1879 55.0348C87.0123 55.0746 86.7968 55.0978 86.5416 55.1044C86.0909 55.1177 85.6848 55.0497 85.3236 54.9006C84.9623 54.7481 84.6756 54.5128 84.4635 54.1946C84.2547 53.8764 84.1519 53.4787 84.1553 53.0014V45.5341ZM91.7192 55V47.3636H93.5189V55H91.7192ZM92.624 46.2798C92.339 46.2798 92.0937 46.1854 91.8882 45.9964C91.6827 45.8042 91.58 45.5739 91.58 45.3054C91.58 45.0336 91.6827 44.8033 91.8882 44.6143C92.0937 44.4221 92.339 44.326 92.624 44.326C92.9124 44.326 93.1576 44.4221 93.3598 44.6143C93.5653 44.8033 93.668 45.0336 93.668 45.3054C93.668 45.5739 93.5653 45.8042 93.3598 45.9964C93.1576 46.1854 92.9124 46.2798 92.624 46.2798ZM101.045 49.3821L99.4044 49.5611C99.358 49.3954 99.2768 49.2396 99.1608 49.0938C99.0481 48.9479 98.8957 48.8303 98.7035 48.7408C98.5112 48.6513 98.2759 48.6065 97.9975 48.6065C97.623 48.6065 97.3081 48.6877 97.0529 48.8501C96.801 49.0125 96.6767 49.223 96.68 49.4815C96.6767 49.7036 96.7579 49.8842 96.9236 50.0234C97.0927 50.1626 97.3711 50.277 97.7588 50.3665L99.0614 50.6449C99.7839 50.8007 100.321 51.0476 100.672 51.3857C101.027 51.7237 101.206 52.1662 101.209 52.7131C101.206 53.1937 101.065 53.6179 100.787 53.9858C100.511 54.3504 100.129 54.6354 99.6381 54.8409C99.1476 55.0464 98.5841 55.1491 97.9478 55.1491C97.0131 55.1491 96.2607 54.9536 95.6907 54.5625C95.1206 54.1681 94.7809 53.6196 94.6715 52.9169L96.4265 52.7479C96.506 53.0926 96.675 53.3527 96.9336 53.5284C97.1921 53.7041 97.5285 53.7919 97.9428 53.7919C98.3704 53.7919 98.7134 53.7041 98.9719 53.5284C99.2338 53.3527 99.3647 53.1357 99.3647 52.8771C99.3647 52.6584 99.2802 52.4777 99.1111 52.3352C98.9454 52.1927 98.6869 52.0833 98.3356 52.0071L97.033 51.7337C96.3005 51.5812 95.7586 51.3243 95.4073 50.9631C95.056 50.5985 94.882 50.1378 94.8853 49.581C94.882 49.1103 95.0096 48.7027 95.2681 48.358C95.5299 48.0099 95.8928 47.7415 96.3569 47.5526C96.8242 47.3603 97.3628 47.2642 97.9726 47.2642C98.8675 47.2642 99.5718 47.4548 100.086 47.8359C100.603 48.2171 100.922 48.7325 101.045 49.3821ZM108.369 49.3821L106.728 49.5611C106.682 49.3954 106.6 49.2396 106.484 49.0938C106.372 48.9479 106.219 48.8303 106.027 48.7408C105.835 48.6513 105.599 48.6065 105.321 48.6065C104.947 48.6065 104.632 48.6877 104.376 48.8501C104.125 49.0125 104 49.223 104.004 49.4815C104 49.7036 104.081 49.8842 104.247 50.0234C104.416 50.1626 104.695 50.277 105.082 50.3665L106.385 50.6449C107.108 50.8007 107.644 51.0476 107.996 51.3857C108.35 51.7237 108.529 52.1662 108.533 52.7131C108.529 53.1937 108.389 53.6179 108.11 53.9858C107.835 54.3504 107.452 54.6354 106.962 54.8409C106.471 55.0464 105.908 55.1491 105.271 55.1491C104.337 55.1491 103.584 54.9536 103.014 54.5625C102.444 54.1681 102.104 53.6196 101.995 52.9169L103.75 52.7479C103.83 53.0926 103.999 53.3527 104.257 53.5284C104.516 53.7041 104.852 53.7919 105.266 53.7919C105.694 53.7919 106.037 53.7041 106.296 53.5284C106.557 53.3527 106.688 53.1357 106.688 52.8771C106.688 52.6584 106.604 52.4777 106.435 52.3352C106.269 52.1927 106.01 52.0833 105.659 52.0071L104.357 51.7337C103.624 51.5812 103.082 51.3243 102.731 50.9631C102.38 50.5985 102.206 50.1378 102.209 49.581C102.206 49.1103 102.333 48.7027 102.592 48.358C102.854 48.0099 103.216 47.7415 103.68 47.5526C104.148 47.3603 104.686 47.2642 105.296 47.2642C106.191 47.2642 106.895 47.4548 107.409 47.8359C107.926 48.2171 108.246 48.7325 108.369 49.3821ZM114.524 51.7884V47.3636H116.324V55H114.579V53.6428H114.499C114.327 54.0703 114.043 54.42 113.649 54.6918C113.258 54.9635 112.776 55.0994 112.202 55.0994C111.702 55.0994 111.259 54.9884 110.875 54.7663C110.494 54.541 110.195 54.2145 109.98 53.7869C109.764 53.3561 109.657 52.8357 109.657 52.2259V47.3636H111.456V51.9474C111.456 52.4313 111.589 52.8158 111.854 53.1009C112.119 53.3859 112.467 53.5284 112.898 53.5284C113.163 53.5284 113.42 53.4638 113.669 53.3345C113.917 53.2053 114.121 53.013 114.28 52.7578C114.443 52.4993 114.524 52.1761 114.524 51.7884ZM121.195 55.1491C120.429 55.1491 119.768 54.9901 119.211 54.6719C118.658 54.3504 118.232 53.8963 117.934 53.3097C117.635 52.7197 117.486 52.0253 117.486 51.2266C117.486 50.4411 117.635 49.7517 117.934 49.1584C118.235 48.5618 118.656 48.0978 119.196 47.7663C119.737 47.4316 120.371 47.2642 121.101 47.2642C121.571 47.2642 122.015 47.3404 122.433 47.4929C122.854 47.642 123.225 47.8741 123.547 48.1889C123.871 48.5038 124.127 48.9048 124.312 49.392C124.498 49.8759 124.591 50.4527 124.591 51.1222V51.674H118.331V50.4609H122.865C122.862 50.1162 122.788 49.8097 122.642 49.5412C122.496 49.2694 122.292 49.0556 122.03 48.8999C121.772 48.7441 121.47 48.6662 121.125 48.6662C120.758 48.6662 120.434 48.7557 120.156 48.9347C119.878 49.1103 119.66 49.3423 119.505 49.6307C119.352 49.9157 119.274 50.2289 119.271 50.5703V51.6293C119.271 52.0734 119.352 52.4545 119.515 52.7727C119.677 53.0876 119.904 53.3295 120.196 53.4986C120.487 53.6643 120.829 53.7472 121.22 53.7472C121.482 53.7472 121.719 53.7107 121.931 53.6378C122.143 53.5616 122.327 53.4505 122.483 53.3047C122.638 53.1589 122.756 52.9782 122.836 52.7628L124.516 52.9517C124.41 53.3958 124.208 53.7836 123.909 54.1151C123.615 54.4432 123.237 54.6984 122.776 54.8807C122.315 55.0597 121.788 55.1491 121.195 55.1491Z" fill="black"/>
<path d="M47.75 73H45.0568V64.2727H47.8693C48.7159 64.2727 49.4403 64.4474 50.0426 64.7969C50.6449 65.1435 51.1065 65.642 51.4276 66.2926C51.7486 66.9403 51.9091 67.7159 51.9091 68.6193C51.9091 69.5284 51.7472 70.3111 51.4233 70.9673C51.0994 71.6207 50.6278 72.1236 50.0085 72.4759C49.3892 72.8253 48.6364 73 47.75 73ZM46.1136 72.0625H47.6818C48.4034 72.0625 49.0014 71.9233 49.4759 71.6449C49.9503 71.3665 50.304 70.9702 50.5369 70.456C50.7699 69.9418 50.8864 69.3295 50.8864 68.6193C50.8864 67.9148 50.7713 67.3082 50.5412 66.7997C50.3111 66.2884 49.9673 65.8963 49.5099 65.6236C49.0526 65.348 48.483 65.2102 47.8011 65.2102H46.1136V72.0625ZM55.9645 73.1364C55.3736 73.1364 54.8552 72.9957 54.4091 72.7145C53.966 72.4332 53.6194 72.0398 53.3694 71.5341C53.1222 71.0284 52.9986 70.4375 52.9986 69.7614C52.9986 69.0795 53.1222 68.4844 53.3694 67.9759C53.6194 67.4673 53.966 67.0724 54.4091 66.7912C54.8552 66.5099 55.3736 66.3693 55.9645 66.3693C56.5555 66.3693 57.0725 66.5099 57.5157 66.7912C57.9617 67.0724 58.3083 67.4673 58.5555 67.9759C58.8055 68.4844 58.9305 69.0795 58.9305 69.7614C58.9305 70.4375 58.8055 71.0284 58.5555 71.5341C58.3083 72.0398 57.9617 72.4332 57.5157 72.7145C57.0725 72.9957 56.5555 73.1364 55.9645 73.1364ZM55.9645 72.233C56.4134 72.233 56.7827 72.1179 57.0725 71.8878C57.3623 71.6577 57.5768 71.3551 57.716 70.9801C57.8552 70.6051 57.9248 70.1989 57.9248 69.7614C57.9248 69.3239 57.8552 68.9162 57.716 68.5384C57.5768 68.1605 57.3623 67.8551 57.0725 67.6222C56.7827 67.3892 56.4134 67.2727 55.9645 67.2727C55.5157 67.2727 55.1464 67.3892 54.8566 67.6222C54.5668 67.8551 54.3523 68.1605 54.2131 68.5384C54.0739 68.9162 54.0043 69.3239 54.0043 69.7614C54.0043 70.1989 54.0739 70.6051 54.2131 70.9801C54.3523 71.3551 54.5668 71.6577 54.8566 71.8878C55.1464 72.1179 55.5157 72.233 55.9645 72.233ZM64.0083 75.4545C63.8379 75.4545 63.6859 75.4403 63.5524 75.4119C63.4189 75.3864 63.3265 75.3608 63.2754 75.3352L63.5311 74.4489C63.7754 74.5114 63.9913 74.5341 64.1788 74.517C64.3663 74.5 64.5325 74.4162 64.6774 74.2656C64.8251 74.1179 64.96 73.8778 65.0822 73.5455L65.2697 73.0341L62.8492 66.4545H63.9402L65.747 71.6705H65.8152L67.622 66.4545H68.7129L65.9345 73.9545C65.8095 74.2926 65.6546 74.5724 65.47 74.794C65.2853 75.0185 65.0708 75.1847 64.8265 75.2926C64.585 75.4006 64.3123 75.4545 64.0083 75.4545ZM72.225 73.1364C71.6341 73.1364 71.1156 72.9957 70.6696 72.7145C70.2264 72.4332 69.8798 72.0398 69.6298 71.5341C69.3827 71.0284 69.2591 70.4375 69.2591 69.7614C69.2591 69.0795 69.3827 68.4844 69.6298 67.9759C69.8798 67.4673 70.2264 67.0724 70.6696 66.7912C71.1156 66.5099 71.6341 66.3693 72.225 66.3693C72.8159 66.3693 73.333 66.5099 73.7762 66.7912C74.2222 67.0724 74.5688 67.4673 74.8159 67.9759C75.0659 68.4844 75.1909 69.0795 75.1909 69.7614C75.1909 70.4375 75.0659 71.0284 74.8159 71.5341C74.5688 72.0398 74.2222 72.4332 73.7762 72.7145C73.333 72.9957 72.8159 73.1364 72.225 73.1364ZM72.225 72.233C72.6739 72.233 73.0432 72.1179 73.333 71.8878C73.6227 71.6577 73.8372 71.3551 73.9764 70.9801C74.1156 70.6051 74.1852 70.1989 74.1852 69.7614C74.1852 69.3239 74.1156 68.9162 73.9764 68.5384C73.8372 68.1605 73.6227 67.8551 73.333 67.6222C73.0432 67.3892 72.6739 67.2727 72.225 67.2727C71.7762 67.2727 71.4068 67.3892 71.1171 67.6222C70.8273 67.8551 70.6128 68.1605 70.4736 68.5384C70.3344 68.9162 70.2648 69.3239 70.2648 69.7614C70.2648 70.1989 70.3344 70.6051 70.4736 70.9801C70.6128 71.3551 70.8273 71.6577 71.1171 71.8878C71.4068 72.1179 71.7762 72.233 72.225 72.233ZM80.6111 70.3239V66.4545H81.6168V73H80.6111V71.892H80.5429C80.3895 72.2244 80.1509 72.5071 79.827 72.7401C79.5031 72.9702 79.094 73.0852 78.5997 73.0852C78.1906 73.0852 77.827 72.9957 77.5088 72.8168C77.1906 72.6349 76.9406 72.3622 76.7588 71.9986C76.577 71.6321 76.4861 71.1705 76.4861 70.6136V66.4545H77.4918V70.5455C77.4918 71.0227 77.6253 71.4034 77.8923 71.6875C78.1622 71.9716 78.506 72.1136 78.9236 72.1136C79.1736 72.1136 79.4278 72.0497 79.6864 71.9219C79.9477 71.794 80.1665 71.598 80.3426 71.3338C80.5216 71.0696 80.6111 70.733 80.6111 70.3239ZM87.3594 69.0625V73H86.3537V64.2727H87.3594V67.4773H87.4446C87.5981 67.1392 87.8282 66.8707 88.135 66.6719C88.4446 66.4702 88.8566 66.3693 89.3708 66.3693C89.8168 66.3693 90.2074 66.4588 90.5427 66.6378C90.8779 66.8139 91.1378 67.0852 91.3225 67.4517C91.51 67.8153 91.6037 68.2784 91.6037 68.8409V73H90.5981V68.9091C90.5981 68.3892 90.4631 67.9872 90.1932 67.7031C89.9262 67.4162 89.5554 67.2727 89.081 67.2727C88.7515 67.2727 88.456 67.3423 88.1946 67.4815C87.9361 67.6207 87.7316 67.8239 87.581 68.0909C87.4333 68.358 87.3594 68.6818 87.3594 69.0625ZM95.1297 73.1534C94.7149 73.1534 94.3385 73.0753 94.0005 72.919C93.6624 72.7599 93.3939 72.5312 93.1951 72.233C92.9962 71.9318 92.8968 71.5682 92.8968 71.142C92.8968 70.767 92.9706 70.4631 93.1184 70.2301C93.2661 69.9943 93.4635 69.8097 93.7107 69.6761C93.9578 69.5426 94.2306 69.4432 94.5289 69.3778C94.83 69.3097 95.1326 69.2557 95.4365 69.2159C95.8343 69.1648 96.1567 69.1264 96.4039 69.1009C96.6539 69.0724 96.8357 69.0256 96.9493 68.9602C97.0658 68.8949 97.124 68.7812 97.124 68.6193V68.5852C97.124 68.1648 97.009 67.8381 96.7789 67.6051C96.5516 67.3722 96.2064 67.2557 95.7434 67.2557C95.2632 67.2557 94.8868 67.3608 94.6141 67.571C94.3414 67.7812 94.1496 68.0057 94.0388 68.2443L93.0843 67.9034C93.2547 67.5057 93.482 67.196 93.7661 66.9744C94.053 66.75 94.3655 66.5937 94.7036 66.5057C95.0445 66.4148 95.3797 66.3693 95.7093 66.3693C95.9195 66.3693 96.161 66.3949 96.4337 66.446C96.7093 66.4943 96.9749 66.5952 97.2306 66.7486C97.4891 66.902 97.7036 67.1335 97.874 67.4432C98.0445 67.7528 98.1297 68.1676 98.1297 68.6875V73H97.124V72.1136H97.0729C97.0047 72.2557 96.8911 72.4077 96.732 72.5696C96.5729 72.7315 96.3613 72.8693 96.097 72.983C95.8328 73.0966 95.5104 73.1534 95.1297 73.1534ZM95.2831 72.25C95.6809 72.25 96.0161 72.1719 96.2888 72.0156C96.5644 71.8594 96.7718 71.6577 96.911 71.4105C97.053 71.1634 97.124 70.9034 97.124 70.6307V69.7102C97.0814 69.7614 96.9877 69.8082 96.8428 69.8509C96.7007 69.8906 96.536 69.9261 96.3485 69.9574C96.1638 69.9858 95.9834 70.0114 95.8073 70.0341C95.634 70.054 95.4934 70.071 95.3854 70.0852C95.124 70.1193 94.8797 70.1747 94.6524 70.2514C94.428 70.3253 94.2462 70.4375 94.107 70.5881C93.9706 70.7358 93.9024 70.9375 93.9024 71.1932C93.9024 71.5426 94.0317 71.8068 94.2902 71.9858C94.5516 72.1619 94.8826 72.25 95.2831 72.25ZM104.843 66.4545L102.423 73H101.4L98.9796 66.4545H100.07L101.877 71.6705H101.945L103.752 66.4545H104.843ZM108.441 73.1364C107.81 73.1364 107.266 72.9972 106.808 72.7188C106.354 72.4375 106.003 72.0455 105.756 71.5426C105.512 71.0369 105.389 70.4489 105.389 69.7784C105.389 69.108 105.512 68.517 105.756 68.0057C106.003 67.4915 106.347 67.0909 106.787 66.804C107.23 66.5142 107.747 66.3693 108.338 66.3693C108.679 66.3693 109.016 66.4261 109.348 66.5398C109.681 66.6534 109.983 66.8381 110.256 67.0938C110.529 67.3466 110.746 67.6818 110.908 68.0994C111.07 68.517 111.151 69.0312 111.151 69.642V70.0682H106.105V69.1989H110.128C110.128 68.8295 110.054 68.5 109.906 68.2102C109.762 67.9205 109.554 67.6918 109.284 67.5241C109.017 67.3565 108.702 67.2727 108.338 67.2727C107.938 67.2727 107.591 67.3722 107.299 67.571C107.009 67.767 106.786 68.0227 106.629 68.3381C106.473 68.6534 106.395 68.9915 106.395 69.3523V69.9318C106.395 70.4261 106.48 70.8452 106.651 71.1889C106.824 71.5298 107.064 71.7898 107.371 71.9688C107.678 72.1449 108.034 72.233 108.441 72.233C108.705 72.233 108.943 72.196 109.156 72.1222C109.372 72.0455 109.558 71.9318 109.715 71.7812C109.871 71.6278 109.992 71.4375 110.077 71.2102L111.049 71.483C110.946 71.8125 110.774 72.1023 110.533 72.3523C110.291 72.5994 109.993 72.7926 109.638 72.9318C109.283 73.0682 108.884 73.1364 108.441 73.1364ZM117.502 73.1534C117.087 73.1534 116.711 73.0753 116.372 72.919C116.034 72.7599 115.766 72.5312 115.567 72.233C115.368 71.9318 115.269 71.5682 115.269 71.142C115.269 70.767 115.343 70.4631 115.49 70.2301C115.638 69.9943 115.836 69.8097 116.083 69.6761C116.33 69.5426 116.603 69.4432 116.901 69.3778C117.202 69.3097 117.505 69.2557 117.809 69.2159C118.206 69.1648 118.529 69.1264 118.776 69.1009C119.026 69.0724 119.208 69.0256 119.321 68.9602C119.438 68.8949 119.496 68.7812 119.496 68.6193V68.5852C119.496 68.1648 119.381 67.8381 119.151 67.6051C118.924 67.3722 118.578 67.2557 118.115 67.2557C117.635 67.2557 117.259 67.3608 116.986 67.571C116.713 67.7812 116.522 68.0057 116.411 68.2443L115.456 67.9034C115.627 67.5057 115.854 67.196 116.138 66.9744C116.425 66.75 116.738 66.5937 117.076 66.5057C117.417 66.4148 117.752 66.3693 118.081 66.3693C118.292 66.3693 118.533 66.3949 118.806 66.446C119.081 66.4943 119.347 66.5952 119.603 66.7486C119.861 66.902 120.076 67.1335 120.246 67.4432C120.417 67.7528 120.502 68.1676 120.502 68.6875V73H119.496V72.1136H119.445C119.377 72.2557 119.263 72.4077 119.104 72.5696C118.945 72.7315 118.733 72.8693 118.469 72.983C118.205 73.0966 117.882 73.1534 117.502 73.1534ZM117.655 72.25C118.053 72.25 118.388 72.1719 118.661 72.0156C118.936 71.8594 119.144 71.6577 119.283 71.4105C119.425 71.1634 119.496 70.9034 119.496 70.6307V69.7102C119.453 69.7614 119.36 69.8082 119.215 69.8509C119.073 69.8906 118.908 69.9261 118.72 69.9574C118.536 69.9858 118.355 70.0114 118.179 70.0341C118.006 70.054 117.865 70.071 117.757 70.0852C117.496 70.1193 117.252 70.1747 117.024 70.2514C116.8 70.3253 116.618 70.4375 116.479 70.5881C116.343 70.7358 116.274 70.9375 116.274 71.1932C116.274 71.5426 116.404 71.8068 116.662 71.9858C116.924 72.1619 117.255 72.25 117.655 72.25ZM123.103 69.0625V73H122.097V66.4545H123.069V67.4773H123.154C123.308 67.1449 123.541 66.8778 123.853 66.6761C124.166 66.4716 124.569 66.3693 125.063 66.3693C125.506 66.3693 125.894 66.4602 126.227 66.642C126.559 66.821 126.817 67.0938 127.002 67.4602C127.187 67.8239 127.279 68.2841 127.279 68.8409V73H126.273V68.9091C126.273 68.3949 126.14 67.9943 125.873 67.7074C125.606 67.4176 125.239 67.2727 124.773 67.2727C124.452 67.2727 124.166 67.3423 123.913 67.4815C123.663 67.6207 123.465 67.8239 123.32 68.0909C123.175 68.358 123.103 68.6818 123.103 69.0625ZM132.012 73V66.4545H133.018V73H132.012ZM132.523 65.3636C132.327 65.3636 132.158 65.2969 132.016 65.1634C131.877 65.0298 131.807 64.8693 131.807 64.6818C131.807 64.4943 131.877 64.3338 132.016 64.2003C132.158 64.0668 132.327 64 132.523 64C132.719 64 132.887 64.0668 133.026 64.2003C133.168 64.3338 133.239 64.4943 133.239 64.6818C133.239 64.8693 133.168 65.0298 133.026 65.1634C132.887 65.2969 132.719 65.3636 132.523 65.3636ZM139.256 67.9205L138.352 68.1761C138.296 68.0256 138.212 67.8793 138.101 67.7372C137.993 67.5923 137.845 67.473 137.658 67.3793C137.47 67.2855 137.23 67.2386 136.938 67.2386C136.537 67.2386 136.203 67.331 135.936 67.5156C135.672 67.6974 135.54 67.929 135.54 68.2102C135.54 68.4602 135.631 68.6577 135.813 68.8026C135.995 68.9474 136.279 69.0682 136.665 69.1648L137.637 69.4034C138.222 69.5455 138.658 69.7628 138.945 70.0554C139.232 70.3452 139.375 70.7187 139.375 71.1761C139.375 71.5511 139.267 71.8864 139.051 72.1818C138.838 72.4773 138.54 72.7102 138.156 72.8807C137.773 73.0511 137.327 73.1364 136.818 73.1364C136.151 73.1364 135.598 72.9915 135.161 72.7017C134.723 72.4119 134.446 71.9886 134.33 71.4318L135.284 71.1932C135.375 71.5455 135.547 71.8097 135.8 71.9858C136.056 72.1619 136.389 72.25 136.801 72.25C137.27 72.25 137.642 72.1506 137.918 71.9517C138.196 71.75 138.335 71.5085 138.335 71.2273C138.335 71 138.256 70.8097 138.097 70.6562C137.938 70.5 137.693 70.3835 137.364 70.3068L136.273 70.0511C135.673 69.9091 135.233 69.6889 134.952 69.3906C134.673 69.0895 134.534 68.7131 134.534 68.2614C134.534 67.892 134.638 67.5653 134.845 67.2812C135.056 66.9972 135.341 66.7741 135.702 66.6122C136.066 66.4503 136.477 66.3693 136.938 66.3693C137.585 66.3693 138.094 66.5114 138.463 66.7955C138.835 67.0795 139.1 67.4545 139.256 67.9205ZM145.285 67.9205L144.382 68.1761C144.325 68.0256 144.241 67.8793 144.131 67.7372C144.023 67.5923 143.875 67.473 143.687 67.3793C143.5 67.2855 143.26 67.2386 142.967 67.2386C142.567 67.2386 142.233 67.331 141.966 67.5156C141.702 67.6974 141.57 67.929 141.57 68.2102C141.57 68.4602 141.66 68.6577 141.842 68.8026C142.024 68.9474 142.308 69.0682 142.695 69.1648L143.666 69.4034C144.251 69.5455 144.687 69.7628 144.974 70.0554C145.261 70.3452 145.405 70.7187 145.405 71.1761C145.405 71.5511 145.297 71.8864 145.081 72.1818C144.868 72.4773 144.57 72.7102 144.186 72.8807C143.802 73.0511 143.356 73.1364 142.848 73.1364C142.18 73.1364 141.628 72.9915 141.19 72.7017C140.753 72.4119 140.476 71.9886 140.359 71.4318L141.314 71.1932C141.405 71.5455 141.577 71.8097 141.829 71.9858C142.085 72.1619 142.419 72.25 142.831 72.25C143.3 72.25 143.672 72.1506 143.947 71.9517C144.226 71.75 144.365 71.5085 144.365 71.2273C144.365 71 144.285 70.8097 144.126 70.6562C143.967 70.5 143.723 70.3835 143.393 70.3068L142.302 70.0511C141.703 69.9091 141.263 69.6889 140.981 69.3906C140.703 69.0895 140.564 68.7131 140.564 68.2614C140.564 67.892 140.668 67.5653 140.875 67.2812C141.085 66.9972 141.371 66.7741 141.731 66.6122C142.095 66.4503 142.507 66.3693 142.967 66.3693C143.615 66.3693 144.123 66.5114 144.493 66.7955C144.865 67.0795 145.129 67.4545 145.285 67.9205ZM150.804 70.3239V66.4545H151.809V73H150.804V71.892H150.735C150.582 72.2244 150.343 72.5071 150.019 72.7401C149.696 72.9702 149.287 73.0852 148.792 73.0852C148.383 73.0852 148.019 72.9957 147.701 72.8168C147.383 72.6349 147.133 72.3622 146.951 71.9986C146.769 71.6321 146.679 71.1705 146.679 70.6136V66.4545H147.684V70.5455C147.684 71.0227 147.818 71.4034 148.085 71.6875C148.355 71.9716 148.698 72.1136 149.116 72.1136C149.366 72.1136 149.62 72.0497 149.879 71.9219C150.14 71.794 150.359 71.598 150.535 71.3338C150.714 71.0696 150.804 70.733 150.804 70.3239ZM156.156 73.1364C155.525 73.1364 154.981 72.9972 154.523 72.7188C154.069 72.4375 153.718 72.0455 153.471 71.5426C153.227 71.0369 153.104 70.4489 153.104 69.7784C153.104 69.108 153.227 68.517 153.471 68.0057C153.718 67.4915 154.062 67.0909 154.502 66.804C154.945 66.5142 155.462 66.3693 156.053 66.3693C156.394 66.3693 156.731 66.4261 157.063 66.5398C157.396 66.6534 157.698 66.8381 157.971 67.0938C158.244 67.3466 158.461 67.6818 158.623 68.0994C158.785 68.517 158.866 69.0312 158.866 69.642V70.0682H153.82V69.1989H157.843C157.843 68.8295 157.769 68.5 157.621 68.2102C157.477 67.9205 157.269 67.6918 156.999 67.5241C156.732 67.3565 156.417 67.2727 156.053 67.2727C155.653 67.2727 155.306 67.3722 155.014 67.571C154.724 67.767 154.501 68.0227 154.344 68.3381C154.188 68.6534 154.11 68.9915 154.11 69.3523V69.9318C154.11 70.4261 154.195 70.8452 154.366 71.1889C154.539 71.5298 154.779 71.7898 155.086 71.9688C155.393 72.1449 155.749 72.233 156.156 72.233C156.42 72.233 156.658 72.196 156.871 72.1222C157.087 72.0455 157.273 71.9318 157.43 71.7812C157.586 71.6278 157.707 71.4375 157.792 71.2102L158.764 71.483C158.661 71.8125 158.489 72.1023 158.248 72.3523C158.006 72.5994 157.708 72.7926 157.353 72.9318C156.998 73.0682 156.599 73.1364 156.156 73.1364ZM164.774 73L162.779 66.4545H163.836L165.251 71.4659H165.319L166.717 66.4545H167.791L169.171 71.4489H169.239L170.654 66.4545H171.711L169.717 73H168.728L167.296 67.9716H167.194L165.762 73H164.774ZM172.801 73V66.4545H173.806V73H172.801ZM173.312 65.3636C173.116 65.3636 172.947 65.2969 172.805 65.1634C172.666 65.0298 172.596 64.8693 172.596 64.6818C172.596 64.4943 172.666 64.3338 172.805 64.2003C172.947 64.0668 173.116 64 173.312 64C173.508 64 173.676 64.0668 173.815 64.2003C173.957 64.3338 174.028 64.4943 174.028 64.6818C174.028 64.8693 173.957 65.0298 173.815 65.1634C173.676 65.2969 173.508 65.3636 173.312 65.3636ZM178.255 66.4545V67.3068H174.863V66.4545H178.255ZM175.851 64.8864H176.857V71.125C176.857 71.4091 176.898 71.6222 176.981 71.7642C177.066 71.9034 177.174 71.9972 177.305 72.0455C177.438 72.0909 177.579 72.1136 177.726 72.1136C177.837 72.1136 177.928 72.108 177.999 72.0966C178.07 72.0824 178.127 72.071 178.17 72.0625L178.374 72.9659C178.306 72.9915 178.211 73.017 178.089 73.0426C177.967 73.071 177.812 73.0852 177.624 73.0852C177.34 73.0852 177.062 73.0241 176.789 72.902C176.519 72.7798 176.295 72.5938 176.116 72.3438C175.94 72.0938 175.851 71.7784 175.851 71.3977V64.8864ZM180.674 69.0625V73H179.668V64.2727H180.674V67.4773H180.759C180.913 67.1392 181.143 66.8707 181.45 66.6719C181.759 66.4702 182.171 66.3693 182.685 66.3693C183.131 66.3693 183.522 66.4588 183.857 66.6378C184.192 66.8139 184.452 67.0852 184.637 67.4517C184.825 67.8153 184.918 68.2784 184.918 68.8409V73H183.913V68.9091C183.913 68.3892 183.778 67.9872 183.508 67.7031C183.241 67.4162 182.87 67.2727 182.396 67.2727C182.066 67.2727 181.771 67.3423 181.509 67.4815C181.251 67.6207 181.046 67.8239 180.896 68.0909C180.748 68.358 180.674 68.6818 180.674 69.0625ZM192.5 66.4545V67.3068H189.108V66.4545H192.5ZM190.096 64.8864H191.102V71.125C191.102 71.4091 191.143 71.6222 191.226 71.7642C191.311 71.9034 191.419 71.9972 191.549 72.0455C191.683 72.0909 191.824 72.1136 191.971 72.1136C192.082 72.1136 192.173 72.108 192.244 72.0966C192.315 72.0824 192.372 72.071 192.414 72.0625L192.619 72.9659C192.551 72.9915 192.456 73.017 192.334 73.0426C192.211 73.071 192.057 73.0852 191.869 73.0852C191.585 73.0852 191.307 73.0241 191.034 72.902C190.764 72.7798 190.539 72.5938 190.36 72.3438C190.184 72.0938 190.096 71.7784 190.096 71.3977V64.8864ZM194.919 69.0625V73H193.913V64.2727H194.919V67.4773H195.004C195.157 67.1392 195.388 66.8707 195.694 66.6719C196.004 66.4702 196.416 66.3693 196.93 66.3693C197.376 66.3693 197.767 66.4588 198.102 66.6378C198.437 66.8139 198.697 67.0852 198.882 67.4517C199.069 67.8153 199.163 68.2784 199.163 68.8409V73H198.157V68.9091C198.157 68.3892 198.022 67.9872 197.753 67.7031C197.486 67.4162 197.115 67.2727 196.64 67.2727C196.311 67.2727 196.015 67.3423 195.754 67.4815C195.496 67.6207 195.291 67.8239 195.14 68.0909C194.993 68.358 194.919 68.6818 194.919 69.0625ZM200.763 73V66.4545H201.769V73H200.763ZM201.274 65.3636C201.078 65.3636 200.909 65.2969 200.767 65.1634C200.628 65.0298 200.558 64.8693 200.558 64.6818C200.558 64.4943 200.628 64.3338 200.767 64.2003C200.909 64.0668 201.078 64 201.274 64C201.47 64 201.638 64.0668 201.777 64.2003C201.919 64.3338 201.99 64.4943 201.99 64.6818C201.99 64.8693 201.919 65.0298 201.777 65.1634C201.638 65.2969 201.47 65.3636 201.274 65.3636ZM208.007 67.9205L207.104 68.1761C207.047 68.0256 206.963 67.8793 206.852 67.7372C206.744 67.5923 206.596 67.473 206.409 67.3793C206.221 67.2855 205.981 67.2386 205.689 67.2386C205.288 67.2386 204.954 67.331 204.687 67.5156C204.423 67.6974 204.291 67.929 204.291 68.2102C204.291 68.4602 204.382 68.6577 204.564 68.8026C204.746 68.9474 205.03 69.0682 205.416 69.1648L206.388 69.4034C206.973 69.5455 207.409 69.7628 207.696 70.0554C207.983 70.3452 208.126 70.7187 208.126 71.1761C208.126 71.5511 208.018 71.8864 207.802 72.1818C207.589 72.4773 207.291 72.7102 206.908 72.8807C206.524 73.0511 206.078 73.1364 205.569 73.1364C204.902 73.1364 204.349 72.9915 203.912 72.7017C203.474 72.4119 203.197 71.9886 203.081 71.4318L204.035 71.1932C204.126 71.5455 204.298 71.8097 204.551 71.9858C204.807 72.1619 205.14 72.25 205.552 72.25C206.021 72.25 206.393 72.1506 206.669 71.9517C206.947 71.75 207.087 71.5085 207.087 71.2273C207.087 71 207.007 70.8097 206.848 70.6562C206.689 70.5 206.444 70.3835 206.115 70.3068L205.024 70.0511C204.425 69.9091 203.984 69.6889 203.703 69.3906C203.425 69.0895 203.285 68.7131 203.285 68.2614C203.285 67.892 203.389 67.5653 203.596 67.2812C203.807 66.9972 204.092 66.7741 204.453 66.6122C204.817 66.4503 205.229 66.3693 205.689 66.3693C206.337 66.3693 206.845 66.5114 207.214 66.7955C207.587 67.0795 207.851 67.4545 208.007 67.9205ZM212.672 73V64.2727H213.677V67.4943H213.762C213.836 67.3807 213.939 67.2358 214.069 67.0597C214.203 66.8807 214.393 66.7216 214.64 66.5824C214.89 66.4403 215.228 66.3693 215.654 66.3693C216.206 66.3693 216.691 66.5071 217.112 66.7827C217.532 67.0582 217.86 67.4489 218.096 67.9545C218.332 68.4602 218.45 69.0568 218.45 69.7443C218.45 70.4375 218.332 71.0384 218.096 71.5469C217.86 72.0526 217.534 72.4446 217.116 72.723C216.698 72.9986 216.217 73.1364 215.672 73.1364C215.251 73.1364 214.914 73.0668 214.662 72.9276C214.409 72.7855 214.214 72.625 214.078 72.446C213.941 72.2642 213.836 72.1136 213.762 71.9943H213.643V73H212.672ZM213.66 69.7273C213.66 70.2216 213.733 70.6577 213.877 71.0355C214.022 71.4105 214.234 71.7045 214.512 71.9176C214.791 72.1278 215.132 72.233 215.535 72.233C215.956 72.233 216.306 72.1222 216.588 71.9006C216.872 71.6761 217.085 71.375 217.227 70.9972C217.372 70.6165 217.444 70.1932 217.444 69.7273C217.444 69.267 217.373 68.8523 217.231 68.483C217.092 68.1108 216.88 67.8168 216.596 67.6009C216.315 67.3821 215.961 67.2727 215.535 67.2727C215.126 67.2727 214.782 67.3764 214.504 67.5838C214.225 67.7884 214.015 68.0753 213.873 68.4446C213.731 68.8111 213.66 69.2386 213.66 69.7273ZM219.748 73V66.4545H220.754V73H219.748ZM220.26 65.3636C220.064 65.3636 219.895 65.2969 219.753 65.1634C219.613 65.0298 219.544 64.8693 219.544 64.6818C219.544 64.4943 219.613 64.3338 219.753 64.2003C219.895 64.0668 220.064 64 220.26 64C220.456 64 220.623 64.0668 220.762 64.2003C220.905 64.3338 220.976 64.4943 220.976 64.6818C220.976 64.8693 220.905 65.0298 220.762 65.1634C220.623 65.2969 220.456 65.3636 220.26 65.3636ZM223.362 64.2727V73H222.356V64.2727H223.362ZM225.969 64.2727V73H224.964V64.2727H225.969ZM228.884 70.5455V70.4943C228.889 69.9517 228.946 69.5199 229.054 69.1989C229.162 68.8778 229.316 68.6179 229.514 68.419C229.713 68.2202 229.952 68.0369 230.23 67.8693C230.398 67.767 230.549 67.6463 230.682 67.5071C230.816 67.3651 230.921 67.2017 230.997 67.017C231.077 66.8324 231.117 66.6278 231.117 66.4034C231.117 66.125 231.051 65.8835 230.921 65.679C230.79 65.4744 230.615 65.3168 230.397 65.206C230.178 65.0952 229.935 65.0398 229.668 65.0398C229.435 65.0398 229.21 65.0881 228.995 65.1847C228.779 65.2812 228.598 65.4332 228.453 65.6406C228.308 65.848 228.225 66.1193 228.202 66.4545H227.128C227.151 65.9716 227.276 65.5582 227.503 65.2145C227.733 64.8707 228.036 64.608 228.411 64.4261C228.789 64.2443 229.208 64.1534 229.668 64.1534C230.168 64.1534 230.602 64.2528 230.972 64.4517C231.344 64.6506 231.631 64.9233 231.833 65.2699C232.037 65.6165 232.139 66.0114 232.139 66.4545C232.139 66.767 232.091 67.0497 231.995 67.3026C231.901 67.5554 231.764 67.7812 231.585 67.9801C231.409 68.179 231.196 68.3551 230.946 68.5085C230.696 68.6648 230.496 68.8295 230.345 69.0028C230.195 69.1733 230.085 69.3764 230.017 69.6122C229.949 69.848 229.912 70.142 229.906 70.4943V70.5455H228.884ZM229.429 73.0682C229.219 73.0682 229.039 72.9929 228.888 72.8423C228.737 72.6918 228.662 72.5114 228.662 72.3011C228.662 72.0909 228.737 71.9105 228.888 71.7599C229.039 71.6094 229.219 71.5341 229.429 71.5341C229.639 71.5341 229.82 71.6094 229.97 71.7599C230.121 71.9105 230.196 72.0909 230.196 72.3011C230.196 72.4403 230.161 72.5682 230.09 72.6847C230.022 72.8011 229.929 72.8949 229.813 72.9659C229.699 73.0341 229.571 73.0682 229.429 73.0682Z" fill="#4F4F4F"/>
<path d="M352 63L356 59L352 55" stroke="black" stroke-opacity="0.32" stroke-width="1.5" stroke-linecap="round" stroke-linejoin="round"/>
<defs>
<clipPath id="clip0_1188_29870">
<rect width="20" height="20" fill="white" transform="translate(12 40)"/>
</clipPath>
</defs>
</svg>
