<svg width="24" height="24" viewBox="0 0 24 24" fill="none" xmlns="http://www.w3.org/2000/svg">
<path d="M10.6155 5.7692C10.7991 5.7692 10.9752 5.84219 11.105 5.97202C11.2348 6.10185 11.3078 6.27789 11.3078 6.4615V12.6922H17.5385C17.9208 12.6922 18.2308 13.0021 18.2308 13.3845C18.2308 14.8906 17.7839 16.3626 16.9472 17.6149C16.1104 18.8672 14.9213 19.8438 13.5298 20.4202C12.1384 20.9965 10.6071 21.1476 9.12995 20.8538C7.65273 20.5599 6.29537 19.8347 5.23035 18.7696C4.16534 17.7046 3.44008 16.3473 3.14624 14.8701C2.85245 13.3929 3.00347 11.8616 3.57983 10.4702C4.15622 9.07867 5.13277 7.88961 6.38509 7.05284C7.63738 6.21613 9.10942 5.7692 10.6155 5.7692ZM9.92321 7.19166C8.9358 7.30204 7.98569 7.64826 7.15401 8.20397C6.12938 8.8886 5.33055 9.8617 4.85896 11.0002C4.38747 12.1386 4.2644 13.3911 4.5047 14.5996C4.74511 15.8083 5.33793 16.9193 6.20931 17.7907C7.08069 18.6621 8.19174 19.2549 9.40038 19.4953C10.6089 19.7356 11.8614 19.6125 12.9998 19.141C14.1383 18.6694 15.1114 17.8706 15.796 16.846C16.3517 16.0143 16.698 15.0642 16.8083 14.0768H10.6155C10.2332 14.0768 9.92321 13.7668 9.92321 13.3845V7.19166ZM13.3847 3C15.4044 3 17.3417 3.802 18.7699 5.23014C20.198 6.65829 21 8.59559 21 10.6153C21 10.7989 20.927 10.9749 20.7972 11.1048C20.6673 11.2346 20.4913 11.3076 20.3077 11.3076H13.3847C13.0024 11.3076 12.6924 10.9976 12.6924 10.6153V3.6923C12.6924 3.50869 12.7654 3.33265 12.8952 3.20282C13.0251 3.07299 13.2011 3 13.3847 3ZM14.077 9.923H19.5748C19.4186 8.52531 18.795 7.21317 17.7909 6.2091C16.7868 5.205 15.4747 4.58052 14.077 4.42426V9.923Z" fill="#CCCCCC"/>
</svg>
