<svg fill="none" height="96" viewBox="0 0 96 96" width="96" xmlns="http://www.w3.org/2000/svg" xmlns:xlink="http://www.w3.org/1999/xlink"><filter id="a" color-interpolation-filters="sRGB" filterUnits="userSpaceOnUse" height="82.1429" width="82.1429" x="6.92857" y="12.6429"><feFlood flood-opacity="0" result="BackgroundImageFix"/><feColorMatrix in="SourceAlpha" result="hardAlpha" type="matrix" values="0 0 0 0 0 0 0 0 0 0 0 0 0 0 0 0 0 0 127 0"/><feMorphology in="SourceAlpha" operator="erode" radius="14.2857" result="effect1_dropShadow_299_11593"/><feOffset dy="5.71429"/><feGaussianBlur stdDeviation="11.4286"/><feColorMatrix type="matrix" values="0 0 0 0 0.0110818 0 0 0 0 0.14686 0 0 0 0 0.0912309 0 0 0 0.16 0"/><feBlend in2="BackgroundImageFix" mode="normal" result="effect1_dropShadow_299_11593"/><feBlend in="SourceGraphic" in2="effect1_dropShadow_299_11593" mode="normal" result="shape"/></filter><filter id="b" color-interpolation-filters="sRGB" filterUnits="userSpaceOnUse" height="37.9041" width="36.4438" x="29.7815" y="36.1877"><feFlood flood-opacity="0" result="BackgroundImageFix"/><feColorMatrix in="SourceAlpha" result="hardAlpha" type="matrix" values="0 0 0 0 0 0 0 0 0 0 0 0 0 0 0 0 0 0 127 0"/><feMorphology in="SourceAlpha" operator="erode" radius="14.2857" result="effect1_dropShadow_299_11593"/><feOffset dy="11.4286"/><feGaussianBlur stdDeviation="8.57143"/><feColorMatrix type="matrix" values="0 0 0 0 0 0 0 0 0 0 0 0 0 0 0 0 0 0 0.2 0"/><feBlend in2="BackgroundImageFix" mode="normal" result="effect1_dropShadow_299_11593"/><feBlend in="SourceGraphic" in2="effect1_dropShadow_299_11593" mode="normal" result="shape"/></filter><linearGradient id="c" gradientUnits="userSpaceOnUse" x1="48" x2="48" y1="16" y2="80"><stop offset="0" stop-color="#fff"/><stop offset="1" stop-color="#fff" stop-opacity="0"/></linearGradient><linearGradient id="d" gradientUnits="userSpaceOnUse" x1="48" x2="48" y1="16" y2="80"><stop offset="0" stop-color="#fff" stop-opacity="0"/><stop offset="1" stop-color="#fff"/></linearGradient><rect fill="#17b26a" fill-opacity=".08" height="96" rx="48" width="96"/><g filter="url(#a)"><path d="m16 48c0 4.2023.8277 8.3635 2.4359 12.2459 1.6081 3.8824 3.9652 7.41 6.9367 10.3815s6.4991 5.3286 10.3815 6.9367c3.8824 1.6082 8.0436 2.4359 12.2459 2.4359s8.3635-.8277 12.2459-2.4359c3.8824-1.6081 7.41-3.9652 10.3815-6.9367s5.3286-6.4991 6.9367-10.3815c1.6082-3.8824 2.4359-8.0436 2.4359-12.2459s-.8277-8.3635-2.4359-12.2459c-1.6081-3.8824-3.9652-7.41-6.9367-10.3815s-6.4991-5.3286-10.3815-6.9367c-3.8824-1.6082-8.0436-2.4359-12.2459-2.4359s-8.3635.8277-12.2459 2.4359c-3.8824 1.6081-7.41 3.9652-10.3815 6.9367s-5.3286 6.4991-6.9367 10.3815c-1.6082 3.8824-2.4359 8.0436-2.4359 12.2459z" fill="#17b26a"/><path d="m16 48c0 4.2023.8277 8.3635 2.4359 12.2459 1.6081 3.8824 3.9652 7.41 6.9367 10.3815s6.4991 5.3286 10.3815 6.9367c3.8824 1.6082 8.0436 2.4359 12.2459 2.4359s8.3635-.8277 12.2459-2.4359c3.8824-1.6081 7.41-3.9652 10.3815-6.9367s5.3286-6.4991 6.9367-10.3815c1.6082-3.8824 2.4359-8.0436 2.4359-12.2459s-.8277-8.3635-2.4359-12.2459c-1.6081-3.8824-3.9652-7.41-6.9367-10.3815s-6.4991-5.3286-10.3815-6.9367c-3.8824-1.6082-8.0436-2.4359-12.2459-2.4359s-8.3635.8277-12.2459 2.4359c-3.8824 1.6081-7.41 3.9652-10.3815 6.9367s-5.3286 6.4991-6.9367 10.3815c-1.6082 3.8824-2.4359 8.0436-2.4359 12.2459z" fill="url(#c)" fill-opacity=".1"/><g stroke-linecap="round" stroke-linejoin="round"><path d="m16 48c0 4.2023.8277 8.3635 2.4359 12.2459 1.6081 3.8824 3.9652 7.41 6.9367 10.3815s6.4991 5.3286 10.3815 6.9367c3.8824 1.6082 8.0436 2.4359 12.2459 2.4359s8.3635-.8277 12.2459-2.4359c3.8824-1.6081 7.41-3.9652 10.3815-6.9367s5.3286-6.4991 6.9367-10.3815c1.6082-3.8824 2.4359-8.0436 2.4359-12.2459s-.8277-8.3635-2.4359-12.2459c-1.6081-3.8824-3.9652-7.41-6.9367-10.3815s-6.4991-5.3286-10.3815-6.9367c-3.8824-1.6082-8.0436-2.4359-12.2459-2.4359s-8.3635.8277-12.2459 2.4359c-3.8824 1.6081-7.41 3.9652-10.3815 6.9367s-5.3286 6.4991-6.9367 10.3815c-1.6082 3.8824-2.4359 8.0436-2.4359 12.2459z" stroke="#000" stroke-opacity=".1"/><path d="m16 48c0 4.2023.8277 8.3635 2.4359 12.2459 1.6081 3.8824 3.9652 7.41 6.9367 10.3815s6.4991 5.3286 10.3815 6.9367c3.8824 1.6082 8.0436 2.4359 12.2459 2.4359s8.3635-.8277 12.2459-2.4359c3.8824-1.6081 7.41-3.9652 10.3815-6.9367s5.3286-6.4991 6.9367-10.3815c1.6082-3.8824 2.4359-8.0436 2.4359-12.2459s-.8277-8.3635-2.4359-12.2459c-1.6081-3.8824-3.9652-7.41-6.9367-10.3815s-6.4991-5.3286-10.3815-6.9367c-3.8824-1.6082-8.0436-2.4359-12.2459-2.4359s-8.3635.8277-12.2459 2.4359c-3.8824 1.6081-7.41 3.9652-10.3815 6.9367s-5.3286 6.4991-6.9367 10.3815c-1.6082 3.8824-2.4359 8.0436-2.4359 12.2459z" stroke="url(#d)" stroke-opacity=".16"/></g></g><g filter="url(#b)"><path d="m56.156 38.372c1.3885-1.3886 3.6392-1.3886 5.0278 0 1.3885 1.3885 1.3885 3.6392 0 5.0277l-14.2223 14.2223c-1.3885 1.3885-3.6392 1.3885-5.0277 0l-7.1112-7.1111c-1.3885-1.3886-1.3885-3.6393 0-5.0278 1.3019-1.3018 3.3622-1.384 4.7587-.2448l.2691.2448 4.5972 4.5972z" fill="#fff"/><path d="m55.752 37.9683c1.6116-1.6117 4.2242-1.6117 5.8359 0 1.6115 1.6117 1.6116 4.2243 0 5.8359l-14.2227 14.2217c-1.6117 1.6116-4.2243 1.6116-5.8359 0l-7.1104-7.1113c-1.6116-1.6117-1.6116-4.2243 0-5.836 1.5111-1.5107 3.902-1.6058 5.5235-.2832.0079.0065.0158.0136.0234.0205l.2696.2442.0195.0185 4.1924 4.1934z" stroke="#000" stroke-linecap="round" stroke-linejoin="round" stroke-opacity=".05" stroke-width="1.14286"/></g></svg>