<svg width="96" height="96" viewBox="0 0 96 96" fill="none" xmlns="http://www.w3.org/2000/svg">
<rect width="96" height="96" rx="48" fill="#17B26A" fill-opacity="0.08"/>
<g filter="url(#filter0_d_453_20301)">
<path d="M16 48C16 52.2023 16.8277 56.3635 18.4359 60.2459C20.044 64.1283 22.4011 67.6559 25.3726 70.6274C28.3441 73.5989 31.8717 75.956 35.7541 77.5641C39.6365 79.1723 43.7977 80 48 80C52.2023 80 56.3635 79.1723 60.2459 77.5641C64.1283 75.956 67.6559 73.5989 70.6274 70.6274C73.5989 67.6559 75.956 64.1283 77.5641 60.2459C79.1723 56.3635 80 52.2023 80 48C80 43.7977 79.1723 39.6365 77.5641 35.7541C75.956 31.8717 73.5989 28.3441 70.6274 25.3726C67.6559 22.4011 64.1283 20.044 60.2459 18.4359C56.3635 16.8277 52.2023 16 48 16C43.7977 16 39.6365 16.8277 35.7541 18.4359C31.8717 20.044 28.3441 22.4011 25.3726 25.3726C22.4011 28.3441 20.044 31.8717 18.4359 35.7541C16.8277 39.6365 16 43.7977 16 48Z" fill="#17B26A"/>
<path d="M16 48C16 52.2023 16.8277 56.3635 18.4359 60.2459C20.044 64.1283 22.4011 67.6559 25.3726 70.6274C28.3441 73.5989 31.8717 75.956 35.7541 77.5641C39.6365 79.1723 43.7977 80 48 80C52.2023 80 56.3635 79.1723 60.2459 77.5641C64.1283 75.956 67.6559 73.5989 70.6274 70.6274C73.5989 67.6559 75.956 64.1283 77.5641 60.2459C79.1723 56.3635 80 52.2023 80 48C80 43.7977 79.1723 39.6365 77.5641 35.7541C75.956 31.8717 73.5989 28.3441 70.6274 25.3726C67.6559 22.4011 64.1283 20.044 60.2459 18.4359C56.3635 16.8277 52.2023 16 48 16C43.7977 16 39.6365 16.8277 35.7541 18.4359C31.8717 20.044 28.3441 22.4011 25.3726 25.3726C22.4011 28.3441 20.044 31.8717 18.4359 35.7541C16.8277 39.6365 16 43.7977 16 48Z" fill="url(#paint0_linear_453_20301)" fill-opacity="0.1"/>
<path d="M16 48C16 52.2023 16.8277 56.3635 18.4359 60.2459C20.044 64.1283 22.4011 67.6559 25.3726 70.6274C28.3441 73.5989 31.8717 75.956 35.7541 77.5641C39.6365 79.1723 43.7977 80 48 80C52.2023 80 56.3635 79.1723 60.2459 77.5641C64.1283 75.956 67.6559 73.5989 70.6274 70.6274C73.5989 67.6559 75.956 64.1283 77.5641 60.2459C79.1723 56.3635 80 52.2023 80 48C80 43.7977 79.1723 39.6365 77.5641 35.7541C75.956 31.8717 73.5989 28.3441 70.6274 25.3726C67.6559 22.4011 64.1283 20.044 60.2459 18.4359C56.3635 16.8277 52.2023 16 48 16C43.7977 16 39.6365 16.8277 35.7541 18.4359C31.8717 20.044 28.3441 22.4011 25.3726 25.3726C22.4011 28.3441 20.044 31.8717 18.4359 35.7541C16.8277 39.6365 16 43.7977 16 48Z" stroke="black" stroke-opacity="0.1" stroke-linecap="round" stroke-linejoin="round"/>
<path d="M16 48C16 52.2023 16.8277 56.3635 18.4359 60.2459C20.044 64.1283 22.4011 67.6559 25.3726 70.6274C28.3441 73.5989 31.8717 75.956 35.7541 77.5641C39.6365 79.1723 43.7977 80 48 80C52.2023 80 56.3635 79.1723 60.2459 77.5641C64.1283 75.956 67.6559 73.5989 70.6274 70.6274C73.5989 67.6559 75.956 64.1283 77.5641 60.2459C79.1723 56.3635 80 52.2023 80 48C80 43.7977 79.1723 39.6365 77.5641 35.7541C75.956 31.8717 73.5989 28.3441 70.6274 25.3726C67.6559 22.4011 64.1283 20.044 60.2459 18.4359C56.3635 16.8277 52.2023 16 48 16C43.7977 16 39.6365 16.8277 35.7541 18.4359C31.8717 20.044 28.3441 22.4011 25.3726 25.3726C22.4011 28.3441 20.044 31.8717 18.4359 35.7541C16.8277 39.6365 16 43.7977 16 48Z" stroke="url(#paint1_linear_453_20301)" stroke-opacity="0.16" stroke-linecap="round" stroke-linejoin="round"/>
</g>
<g filter="url(#filter1_d_453_20301)">
<path d="M56.156 38.3725C57.5445 36.9839 59.7952 36.9839 61.1838 38.3725C62.5723 39.761 62.5723 42.0117 61.1838 43.4002L46.9615 57.6225C45.573 59.011 43.3223 59.011 41.9338 57.6225L34.8226 50.5113C33.4341 49.1228 33.4341 46.8721 34.8226 45.4836C36.1245 44.1818 38.1848 44.0996 39.5813 45.2388L39.8504 45.4836L44.4476 50.0808L56.156 38.3725Z" fill="white"/>
<path d="M55.752 37.9688C57.3636 36.3571 59.9762 36.3571 61.5879 37.9688C63.1994 39.5805 63.1995 42.1931 61.5879 43.8047L47.3652 58.0264C45.7535 59.6379 43.1409 59.638 41.5293 58.0264L34.4189 50.915C32.8073 49.3034 32.8073 46.6908 34.4189 45.0791C35.93 43.5684 38.3209 43.4733 39.9424 44.7959C39.9503 44.8024 39.9582 44.8095 39.9658 44.8164L40.2354 45.0605L40.2549 45.0791L44.4473 49.2725L55.752 37.9688Z" stroke="black" stroke-opacity="0.05" stroke-width="1.14286" stroke-linecap="round" stroke-linejoin="round"/>
</g>
<defs>
<filter id="filter0_d_453_20301" x="6.92857" y="12.6429" width="82.1429" height="82.1429" filterUnits="userSpaceOnUse" color-interpolation-filters="sRGB">
<feFlood flood-opacity="0" result="BackgroundImageFix"/>
<feColorMatrix in="SourceAlpha" type="matrix" values="0 0 0 0 0 0 0 0 0 0 0 0 0 0 0 0 0 0 127 0" result="hardAlpha"/>
<feMorphology radius="14.2857" operator="erode" in="SourceAlpha" result="effect1_dropShadow_453_20301"/>
<feOffset dy="5.71429"/>
<feGaussianBlur stdDeviation="11.4286"/>
<feColorMatrix type="matrix" values="0 0 0 0 0.0110818 0 0 0 0 0.14686 0 0 0 0 0.0912309 0 0 0 0.16 0"/>
<feBlend mode="normal" in2="BackgroundImageFix" result="effect1_dropShadow_453_20301"/>
<feBlend mode="normal" in="SourceGraphic" in2="effect1_dropShadow_453_20301" result="shape"/>
</filter>
<filter id="filter1_d_453_20301" x="29.781" y="36.1885" width="36.4443" height="37.9039" filterUnits="userSpaceOnUse" color-interpolation-filters="sRGB">
<feFlood flood-opacity="0" result="BackgroundImageFix"/>
<feColorMatrix in="SourceAlpha" type="matrix" values="0 0 0 0 0 0 0 0 0 0 0 0 0 0 0 0 0 0 127 0" result="hardAlpha"/>
<feMorphology radius="14.2857" operator="erode" in="SourceAlpha" result="effect1_dropShadow_453_20301"/>
<feOffset dy="11.4286"/>
<feGaussianBlur stdDeviation="8.57143"/>
<feColorMatrix type="matrix" values="0 0 0 0 0 0 0 0 0 0 0 0 0 0 0 0 0 0 0.2 0"/>
<feBlend mode="normal" in2="BackgroundImageFix" result="effect1_dropShadow_453_20301"/>
<feBlend mode="normal" in="SourceGraphic" in2="effect1_dropShadow_453_20301" result="shape"/>
</filter>
<linearGradient id="paint0_linear_453_20301" x1="48" y1="16" x2="48" y2="80" gradientUnits="userSpaceOnUse">
<stop stop-color="white"/>
<stop offset="1" stop-color="white" stop-opacity="0"/>
</linearGradient>
<linearGradient id="paint1_linear_453_20301" x1="48" y1="16" x2="48" y2="80" gradientUnits="userSpaceOnUse">
<stop stop-color="white" stop-opacity="0"/>
<stop offset="1" stop-color="white"/>
</linearGradient>
</defs>
</svg>
