<svg width="16" height="16" viewBox="0 0 16 16" fill="none" xmlns="http://www.w3.org/2000/svg">
<path d="M13.3333 7.33334C13.1703 6.16015 12.626 5.07311 11.7844 4.23967C10.9428 3.40623 9.8505 2.87262 8.67578 2.72104C7.50105 2.56947 6.30908 2.80833 5.28347 3.40084C4.25785 3.99335 3.4555 4.90663 3 6.00001M2.66666 3.33334V6.00001H5.33333M2.66666 8.66667C2.8297 9.83986 3.37395 10.9269 4.21557 11.7603C5.05719 12.5938 6.14949 13.1274 7.32422 13.279C8.49894 13.4306 9.69092 13.1917 10.7165 12.5992C11.7421 12.0067 12.5445 11.0934 13 10M13.3333 12.6667V10H10.6667" stroke="#6A6A6A" stroke-width="1.33333" stroke-linecap="round" stroke-linejoin="round"/>
</svg>
