<svg width="20" height="20" viewBox="0 0 20 20" fill="none" xmlns="http://www.w3.org/2000/svg">
<path d="M10 1.66675L10.27 1.67091C12.4556 1.74177 14.5258 2.66887 16.034 4.25226C17.5423 5.83564 18.3677 7.94842 18.3322 10.1349C18.2968 12.3214 17.4034 14.4063 15.8446 15.94C14.2859 17.4737 12.1868 18.3332 10 18.3332C7.81325 18.3332 5.71412 17.4737 4.15538 15.94C2.59664 14.4063 1.7032 12.3214 1.66777 10.1349C1.63234 7.94842 2.45776 5.83564 3.96599 4.25226C5.47422 2.66887 7.5444 1.74177 9.73001 1.67091L10 1.66675ZM10.5108 6.00841C10.3433 5.8789 10.1328 5.818 9.92207 5.83808C9.7113 5.85816 9.51607 5.95771 9.37605 6.11652C9.23602 6.27532 9.16169 6.48147 9.16815 6.69309C9.17461 6.90472 9.26138 7.10595 9.41084 7.25591L11.32 9.16675H6.66667L6.56917 9.17258C6.35826 9.19767 6.16489 9.30234 6.02856 9.46522C5.89223 9.6281 5.82325 9.83688 5.8357 10.0489C5.84814 10.261 5.94109 10.4602 6.09553 10.606C6.24998 10.7518 6.45427 10.8332 6.66667 10.8334H11.32L9.41084 12.7442L9.34167 12.8226C9.21216 12.9901 9.15126 13.2006 9.17134 13.4114C9.19142 13.6221 9.29097 13.8173 9.44977 13.9574C9.60858 14.0974 9.81473 14.1717 10.0264 14.1653C10.238 14.1588 10.4392 14.072 10.5892 13.9226L13.9225 10.5892L13.9833 10.5209L14.0367 10.4467L14.0883 10.3526L14.125 10.2609L14.15 10.1676L14.1642 10.0626L14.1667 10.0001L14.1608 9.90175L14.1367 9.77841L14.1075 9.69091L14.0625 9.59675L14.0033 9.50425C13.9787 9.47118 13.9517 9.43998 13.9225 9.41091L10.5892 6.07758L10.5108 6.00841Z" fill="#13472A"/>
</svg>
