<svg fill="none" height="15" viewBox="0 0 12 15" width="12" xmlns="http://www.w3.org/2000/svg"><path d="m7.33366.846436v2.753694c0 .37337 0 .56005.07266.70266.06392.12544.1659.22743.29135.29134.1426.07267.32929.07267.70266.07267h2.75367m-3.82034 5.9999h-4m5.33333-2.66662h-5.33333m8.00004-2.00785v4.80787c0 1.1201 0 1.6801-.218 2.108-.1918.3763-.4977.6822-.8741.874-.42778.218-.98784.218-2.10794.218h-4.26667c-1.1201 0-1.68016 0-2.10798-.218-.37632-.1918-.68228-.4977-.874031-.874-.217987-.4279-.217987-.9879-.217987-2.108v-6.93335c0-1.12011 0-1.68016.217987-2.10798.191751-.37633.497711-.68229.874031-.874035.42782-.217987.98788-.217987 2.10798-.217987h2.14119c.48918 0 .73377 0 .96394.05526.20407.048994.39916.129802.57811.23946.20183.123682.37478.296632.72069.642542l2.12548 2.12548c.3459.3459.5189.51886.6425.72069.1097.17894.1905.37403.2395.5781.0553.23018.0553.47477.0553.96395z" stroke="#088d45" stroke-linecap="round" stroke-linejoin="round" stroke-width="1.33333"/></svg>