<svg width="51" height="21" viewBox="0 0 51 21" fill="none" xmlns="http://www.w3.org/2000/svg">
<rect x="0.25" y="0.25" width="50.5" height="20.5" rx="4.25" fill="#FFF7F7"/>
<rect x="0.25" y="0.25" width="50.5" height="20.5" rx="4.25" stroke="#CFB6B6" stroke-width="0.5"/>
<path d="M11.2042 7.22727H12.5217V11.9787C12.5217 12.4995 12.3986 12.9576 12.1523 13.353C11.9085 13.7483 11.5652 14.0573 11.1225 14.2798C10.6798 14.5 10.1625 14.6101 9.57067 14.6101C8.97644 14.6101 8.45798 14.5 8.01527 14.2798C7.57256 14.0573 7.22929 13.7483 6.98544 13.353C6.7416 12.9576 6.61967 12.4995 6.61967 11.9787V7.22727H7.93714V11.8686C7.93714 12.1716 8.00343 12.4415 8.13601 12.6783C8.27095 12.915 8.46035 13.1009 8.70419 13.2358C8.94804 13.3684 9.23686 13.4347 9.57067 13.4347C9.90447 13.4347 10.1933 13.3684 10.4371 13.2358C10.6834 13.1009 10.8728 12.915 11.0053 12.6783C11.1379 12.4415 11.2042 12.1716 11.2042 11.8686V7.22727ZM20.3302 7.22727V14.5H19.1583L15.7315 9.54616H15.6711V14.5H14.3537V7.22727H15.5326L18.9559 12.1847H19.0199V7.22727H20.3302ZM22.1658 14.5V7.22727H24.893C25.4518 7.22727 25.9205 7.33144 26.2993 7.53977C26.6804 7.74811 26.9681 8.03456 27.1622 8.39915C27.3587 8.76136 27.457 9.1733 27.457 9.63494C27.457 10.1013 27.3587 10.5156 27.1622 10.8778C26.9657 11.2401 26.6757 11.5253 26.2922 11.7337C25.9087 11.9396 25.4364 12.0426 24.8753 12.0426H23.0678V10.9595H24.6977C25.0244 10.9595 25.292 10.9027 25.5003 10.7891C25.7086 10.6754 25.8625 10.5192 25.9619 10.3203C26.0637 10.1214 26.1146 9.89299 26.1146 9.63494C26.1146 9.37689 26.0637 9.14962 25.9619 8.95312C25.8625 8.75663 25.7074 8.60393 25.4967 8.49503C25.2884 8.38376 25.0197 8.32812 24.6906 8.32812H23.4832V14.5H22.1658ZM29.1247 14.5H27.7185L30.2788 7.22727H31.9053L34.4692 14.5H33.0629L31.1205 8.71875H31.0636L29.1247 14.5ZM29.1709 11.6484H33.0061V12.7067H29.1709V11.6484ZM37.1446 7.22727V14.5H35.8271V7.22727H37.1446ZM41.4357 14.5H38.9712V7.22727H41.4854C42.2075 7.22727 42.8278 7.37287 43.3462 7.66406C43.8671 7.95289 44.2672 8.36837 44.5465 8.91051C44.8259 9.45265 44.9656 10.1013 44.9656 10.8565C44.9656 11.6141 44.8247 12.2652 44.543 12.8097C44.2636 13.3542 43.86 13.772 43.332 14.0632C42.8065 14.3544 42.1744 14.5 41.4357 14.5ZM40.2887 13.3601H41.3718C41.8784 13.3601 42.301 13.2678 42.6396 13.0831C42.9781 12.8961 43.2326 12.6179 43.4031 12.2486C43.5735 11.8769 43.6587 11.4129 43.6587 10.8565C43.6587 10.3002 43.5735 9.83854 43.4031 9.47159C43.2326 9.10227 42.9805 8.82647 42.6467 8.64418C42.3152 8.45952 41.9033 8.36719 41.4109 8.36719H40.2887V13.3601Z" fill="#D70000"/>
</svg>
