<svg width="40" height="40" viewBox="0 0 40 40" fill="none" xmlns="http://www.w3.org/2000/svg">
<path d="M0 12C0 5.37258 5.37258 0 12 0H28C34.6274 0 40 5.37258 40 12V28C40 34.6274 34.6274 40 28 40H12C5.37258 40 0 34.6274 0 28V12Z" fill="#FFF7F7"/>
<path d="M21.666 12.5V15.8333C21.666 16.0543 21.7538 16.2663 21.9101 16.4226C22.0664 16.5789 22.2783 16.6667 22.4993 16.6667H25.8327" stroke="#FF0000" stroke-width="1.66667" stroke-linecap="round" stroke-linejoin="round"/>
<path d="M25.8325 20V25.8333C25.8719 26.1478 25.8095 26.4667 25.6545 26.7431C25.4995 27.0196 25.26 27.2392 24.9712 27.3696C24.6823 27.5001 24.3593 27.5346 24.0494 27.468C23.7395 27.4015 23.459 27.2375 23.2491 27C23.1205 26.8355 22.9561 26.7024 22.7684 26.6109C22.5807 26.5193 22.3746 26.4718 22.1658 26.4718C21.957 26.4718 21.7509 26.5193 21.5632 26.6109C21.3755 26.7024 21.2111 26.8355 21.0825 27C20.9539 27.1645 20.7895 27.2976 20.6018 27.3891C20.4141 27.4807 20.208 27.5282 19.9991 27.5282C19.7903 27.5282 19.5842 27.4807 19.3965 27.3891C19.2088 27.2976 19.0444 27.1645 18.9158 27C18.7872 26.8355 18.6228 26.7024 18.4351 26.6109C18.2474 26.5193 18.0413 26.4718 17.8325 26.4718C17.6236 26.4718 17.4176 26.5193 17.2298 26.6109C17.0421 26.7024 16.8777 26.8355 16.7491 27C16.5393 27.2375 16.2588 27.4015 15.9489 27.468C15.639 27.5346 15.316 27.5001 15.0271 27.3696C14.7383 27.2392 14.4988 27.0196 14.3438 26.7431C14.1888 26.4667 14.1264 26.1478 14.1658 25.8333V14.1667C14.1658 13.7246 14.3414 13.3007 14.654 12.9882C14.9665 12.6756 15.3904 12.5 15.8325 12.5H21.6658L25.8325 16.6667V20.2083" stroke="#FF0000" stroke-width="1.66667" stroke-linecap="round" stroke-linejoin="round"/>
</svg>
