<svg fill="none" height="17" viewBox="0 0 18 17" width="18" xmlns="http://www.w3.org/2000/svg"><path d="m7.90558 2.4936c.33867-.05007.68805-.07693 1.04789-.07693 4.25413 0 7.04573 3.75403 7.98353 5.23902.1136.17973.1703.26959.2021.4082.0238.1041.0238.26833-.0001.37242-.0318.13861-.0889.22907-.2032.41-.2499.39548-.6309.95128-1.1356 1.55409m-11.24347-6.55454c-1.80173 1.22222-3.0249 2.92029-3.586017 3.80854-.114017.18049-.171026.27074-.202805.40933-.023869.1041-.023878.2683-.000022.3724.031764.1386.088515.22846.202017.40819.937837 1.48498 3.729397 5.23898 7.983567 5.23898 1.71533 0 3.19293-.6103 4.40703-1.4361m-11.90703-11.8972 15.00003 15m-9.2678-9.26777c-.45241.45241-.73223 1.07741-.73223 1.76777 0 1.38071 1.11929 2.5 2.5 2.5.69036 0 1.31533-.2798 1.76773-.7322" stroke="#888" stroke-linecap="round" stroke-linejoin="round" stroke-width="1.5"/></svg>