<svg fill="none" height="17" viewBox="0 0 19 17" width="19" xmlns="http://www.w3.org/2000/svg"><path d="m9.30286 6.17011v3.33334m0 3.33335h.00833m-1.16224-10.92358-6.85407 11.83888c-.380168.6566-.570254.985-.542159 1.2544.024504.2351.147646.4486.338779.5876.21913.1593.59852.1593 1.35729.1593h13.70811c.7588 0 1.1382 0 1.3573-.1593.1911-.139.3143-.3525.3388-.5876.0281-.2694-.162-.5978-.5422-1.2544l-6.854-11.83889c-.3789-.6543-.56825-.981449-.81536-1.091327-.21555-.095844-.46162-.095844-.67717 0-.2471.109878-.43651.437027-.81532 1.091337z" stroke="#ffa500" stroke-linecap="round" stroke-linejoin="round" stroke-width="1.5"/></svg>